// EDITOR=Softimage XSI 5.11.2006.0529
// SCENE=D:\Left4Dead\content\left4dead\models\infected\witch\Scenes\Witch_Idle_Standing.scn
// DATE=06/03/2008  20:05
// USERNAME=dougwood
// VPROJECT=D:\Left4Dead\game\left4dead
// UPAXIS=Z
// SMD Export Settings
//		Filename: D:\Left4Dead\content\left4dead\models\infected\witch\Smd\Witch_Idle_Standing.smd
//		File Type: Skeletal Animation (.SMD)
//		Optimize Chains and Compensate: ON
//		Remove Top-Level Bone on Character Rig: ON
//		Remove all unused bones: OFF
//		Export Selection Only: OFF
//		Zero Root Transforms: OFF
version 1
nodes
0 "Witch" -1
1 "ValveBiped.Bip01" -1
2 "ValveBiped.Bip01_Pelvis" 1
3 "ValveBiped.Bip01_L_Thigh" 2
4 "ValveBiped.Bip01_L_Calf" 3
5 "ValveBiped.Bip01_L_Foot" 4
6 "ValveBiped.Bip01_L_Toe0" 5
7 "ValveBiped.Bip01_R_Thigh" 2
8 "ValveBiped.Bip01_R_Calf" 7
9 "ValveBiped.Bip01_R_Foot" 8
10 "ValveBiped.Bip01_R_Toe0" 9
11 "ValveBiped.Bip01_Spine" 1
12 "ValveBiped.Bip01_Spine1" 11
13 "ValveBiped.Bip01_Spine2" 12
14 "ValveBiped.Bip01_Spine4" 13
15 "ValveBiped.Bip01_Neck1" 14
16 "ValveBiped.Bip01_Head1" 15
17 "ValveBiped.Bip01_L_Clavicle" 14
18 "ValveBiped.Bip01_L_UpperArm" 17
19 "ValveBiped.Bip01_L_Forearm" 18
20 "ValveBiped.Bip01_L_Hand" 19
21 "ValveBiped.Bip01_L_Finger4" 20
22 "ValveBiped.Bip01_L_Finger41" 21
23 "ValveBiped.Bip01_L_Finger42" 22
24 "ValveBiped.Bip01_L_Finger3" 20
25 "ValveBiped.Bip01_L_Finger31" 24
26 "ValveBiped.Bip01_L_Finger32" 25
27 "ValveBiped.Bip01_L_Finger2" 20
28 "ValveBiped.Bip01_L_Finger21" 27
29 "ValveBiped.Bip01_L_Finger22" 28
30 "ValveBiped.Bip01_L_Finger1" 20
31 "ValveBiped.Bip01_L_Finger11" 30
32 "ValveBiped.Bip01_L_Finger12" 31
33 "ValveBiped.Bip01_L_Finger0" 20
34 "ValveBiped.Bip01_L_Finger01" 33
35 "ValveBiped.Bip01_L_Finger02" 34
36 "ValveBiped.Bip01_R_Clavicle" 14
37 "ValveBiped.Bip01_R_UpperArm" 36
38 "ValveBiped.Bip01_R_Forearm" 37
39 "ValveBiped.Bip01_R_Hand" 38
40 "ValveBiped.Bip01_R_Finger4" 39
41 "ValveBiped.Bip01_R_Finger41" 40
42 "ValveBiped.Bip01_R_Finger42" 41
43 "ValveBiped.Bip01_R_Finger3" 39
44 "ValveBiped.Bip01_R_Finger31" 43
45 "ValveBiped.Bip01_R_Finger32" 44
46 "ValveBiped.Bip01_R_Finger2" 39
47 "ValveBiped.Bip01_R_Finger21" 46
48 "ValveBiped.Bip01_R_Finger22" 47
49 "ValveBiped.Bip01_R_Finger1" 39
50 "ValveBiped.Bip01_R_Finger11" 49
51 "ValveBiped.Bip01_R_Finger12" 50
52 "ValveBiped.Bip01_R_Finger0" 39
53 "ValveBiped.Bip01_R_Finger01" 52
54 "ValveBiped.Bip01_R_Finger02" 53
55 "ValveBiped.LeftFootParent" -1
56 "ValveBiped.LeftFoot" 55
57 "ValveBiped.LfootUpVector" 56
58 "ValveBiped.LfootUpVector2" 56
59 "ValveBiped.spacer" 56
60 "ValveBiped.heel" 59
61 "ValveBiped.toe" 60
62 "ValveBiped.mid" 61
63 "ValveBiped.ankle" 62
64 "ValveBiped.spacer3" 62
65 "ValveBiped.LeftToe" 64
66 "ValveBiped.LeftRoll" 59
67 "ValveBiped.LeftToeTarget" 56
68 "ValveBiped.LegRollL_Point_ClsCtr" 56
69 "ValveBiped.RightFootParent" -1
70 "ValveBiped.RightFoot" 69
71 "ValveBiped.RfootUpVector1" 70
72 "ValveBiped.RfootUpVector2" 70
73 "ValveBiped.spacer1" 70
74 "ValveBiped.heel1" 73
75 "ValveBiped.toe1" 74
76 "ValveBiped.mid1" 75
77 "ValveBiped.ankle1" 76
78 "ValveBiped.spacer4" 76
79 "ValveBiped.RightToe" 78
80 "ValveBiped.RightRoll" 73
81 "ValveBiped.RightToeTarget" 70
82 "ValveBiped.LegRollR_Point_ClsCtr" 70
83 "ValveBiped.UpperBodyParent" -1
84 "ValveBiped.UpperBody" 83
85 "ValveBiped.SpineControlParent" 84
86 "ValveBiped.SpineControl" 85
87 "ValveBiped.SpineControlConstrainer" 86
88 "ValveBiped.SpineControl1" 86
89 "ValveBiped.SpineControlConstrainer1" 88
90 "ValveBiped.SpineControl2" 88
91 "ValveBiped.SpineControlConstrainer2" 90
92 "ValveBiped.SpineControl3" 90
93 "ValveBiped.SpineControlConstrainer3" 92
94 "ValveBiped.NeckControl" 92
95 "ValveBiped.NeckControlConstrainer" 94
96 "ValveBiped.HeadControl" 94
97 "ValveBiped.HeadControlConstrainer" 96
98 "ValveBiped.ClavicleControlParentL" 92
99 "ValveBiped.ClavicleControlL" 98
100 "ValveBiped.ClavicleControlParentR" 92
101 "ValveBiped.ClavicleControlR" 100
102 "ValveBiped.HandControlPosParentL" -1
103 "ValveBiped.HandControlPosL" 102
104 "ValveBiped.ArmRollL_Point_ClsCtr" 103
105 "ValveBiped.ArmRollL" 102
106 "ValveBiped.lArmUpVParent" 105
107 "ValveBiped.lArmUpV" 106
108 "ValveBiped.HandControlRotGrandmaL" -1
109 "ValveBiped.HandControlRotParentL" 108
110 "ValveBiped.HandControlRotL" 109
111 "ValveBiped.HandControlRotL1" 110
112 "ValveBiped.HandControlRotConstrainerL" 111
113 "ValveBiped.HandControlPosParentR" -1
114 "ValveBiped.HandControlPosR" 113
115 "ValveBiped.ArmRollR_Point_ClsCtr" 114
116 "ValveBiped.ArmRollR" 113
117 "ValveBiped.lArmUpVParent1" 116
118 "ValveBiped.rArmUpV" 117
119 "ValveBiped.HandControlRotGrandmaR" -1
120 "ValveBiped.HandControlRotParentR" 119
121 "ValveBiped.HandControlRotR" 120
122 "ValveBiped.HandControlRotR1" 121
123 "ValveBiped.HandControlRotConstrainerR" 122
124 "ValveBiped.LegRollControlParent_L" -1
125 "ValveBiped.LegRollL" 124
126 "ValveBiped.LUpVParent" 125
127 "ValveBiped.LeftLeg_UpV" 126
128 "ValveBiped.LegRollControlParent_R" -1
129 "ValveBiped.LegRollR" 128
130 "ValveBiped.RUpVParent" 129
131 "ValveBiped.RightLeg_UpV" 130
end
skeleton
time 0
0 0.000000 0.000000 0.000000 1.570796 0.000000 0.000000
1 0.382235 5.150383 32.059673 1.614112 -0.026598 -0.000377
2 0.000000 0.000000 0.000000 0.000000 0.000000 0.000000
3 3.490192 0.000000 0.000000 4.570180 -0.393645 -7.469963
4 17.312614 0.000000 0.000000 0.000000 0.000000 0.581570
5 16.130360 0.000000 0.000000 -0.411130 -0.103371 -1.369802
6 5.353091 0.000000 0.000000 0.018210 -0.026476 -0.316615
7 -3.490192 0.000000 0.000000 7.884715 -2.856497 -11.228844
8 17.312614 0.000000 0.000000 0.000000 0.000000 0.881000
9 16.130360 0.000000 0.000000 0.308536 0.217687 -1.739072
10 5.353091 0.000000 0.000000 -0.108343 0.021552 -0.421653
11 0.000000 3.980640 -0.064522 1.546729 -0.170395 1.549860
12 3.278966 0.000000 0.000000 -0.025291 0.007410 0.033117
13 3.543985 0.000000 0.000000 -0.022689 0.056514 0.083565
14 5.663627 0.000000 0.000000 -0.016355 0.072832 0.174670
15 4.682082 0.000000 0.000000 3.046548 -0.122010 0.787205
16 4.186316 0.000000 0.000000 0.061513 0.016576 0.943257
17 3.369210 1.594238 1.500000 -0.028768 -1.086990 -1.800717
18 4.179417 0.000000 0.000000 -1.834275 0.064115 -1.053408
19 10.735911 0.000000 0.000000 0.000000 0.000000 -0.859400
20 10.060622 -0.000017 -0.000028 1.000304 -0.185930 0.072993
21 2.888015 0.275892 -1.268036 0.456245 0.553647 0.150457
22 2.059619 0.000000 0.000000 -0.009100 -0.014494 -0.560690
23 1.413883 0.000000 0.000000 -0.034493 -0.066093 -0.481466
24 3.061202 0.168356 -0.385494 0.508434 0.196649 0.148701
25 2.508612 0.000000 0.000000 0.007855 0.012765 -0.551661
26 2.100857 0.000000 0.000000 -0.032504 -0.054996 -0.534173
27 3.430954 -0.121082 0.402565 0.531074 0.040957 0.136571
28 2.573873 0.000000 0.000000 -0.034598 -0.081423 -0.402342
29 2.362709 0.000000 0.000000 0.056123 0.073448 -0.653421
30 3.440184 -0.578705 1.137345 0.587081 -0.192757 0.216853
31 2.501091 0.000000 0.000000 -0.010757 -0.021484 -0.464276
32 2.170917 0.000000 0.000000 0.028566 0.062255 -0.430538
33 0.955230 -1.097456 0.270379 2.413279 -0.759981 -0.883250
34 1.963946 0.000000 0.000000 0.000000 -0.045527 -0.106288
35 1.868832 0.000000 0.000000 0.000000 0.019567 -0.562827
36 3.369210 1.594238 -1.500000 0.466953 1.084832 -1.296658
37 4.179417 0.000000 0.000000 1.770522 0.116454 -1.013736
38 10.735911 0.000000 0.000000 0.000000 0.000000 -0.849698
39 10.060604 -0.000010 0.000016 -0.810150 0.251531 -0.268317
40 2.888032 0.275104 1.268207 -0.489817 -0.676142 0.058655
41 2.059619 0.000000 0.000000 0.014073 0.022427 -0.560457
42 1.413883 0.000000 0.000000 0.034493 0.066093 -0.481466
43 3.061220 0.168117 0.385599 -0.518506 -0.174225 0.046249
44 2.508612 0.000000 0.000000 -0.003829 -0.006221 -0.551762
45 2.100857 0.000000 0.000000 0.032504 0.054996 -0.534173
46 3.430974 -0.120831 -0.402640 -0.516284 0.025867 -0.042281
47 2.573873 0.000000 0.000000 0.033895 0.079692 -0.402671
48 2.362709 0.000000 0.000000 -0.056123 -0.073448 -0.653421
49 3.440207 -0.577997 -1.137703 -0.554345 0.379772 0.069570
50 2.501091 0.000000 0.000000 0.008337 0.016641 -0.464460
51 2.170917 0.000000 0.000000 -0.028566 -0.062255 -0.430538
52 0.955254 -1.097296 -0.271062 -2.417156 0.764133 -0.888584
53 1.963946 0.000000 0.000000 0.000000 0.049433 -0.128248
54 1.868832 0.000000 0.000000 0.000000 -0.019567 -0.788824
55 3.547715 2.053023 2.506176 1.570796 0.000000 0.000000
56 11.868575 -0.144615 -0.682784 0.000000 0.365786 0.000000
57 0.032300 -4.377939 -4.331139 0.000000 0.000000 0.000000
58 -0.002340 -2.491005 4.197046 0.000000 0.000937 -0.001514
59 0.000000 0.000000 0.000000 0.000000 0.000000 0.000000
60 -0.421262 -2.516541 -1.807297 0.000000 0.000000 0.000000
61 0.480304 0.849103 9.288738 0.000000 0.000937 -0.001514
62 -0.056798 -0.000083 -2.394724 0.000000 0.000000 0.000000
63 0.002241 1.667430 -5.086772 0.000000 0.000000 0.000000
64 0.000000 0.000000 0.000000 0.000000 0.000000 0.000000
65 0.000000 0.000000 0.000000 0.000000 0.000000 0.000000
66 0.000000 0.000000 0.000000 0.000000 0.000000 0.000000
67 0.059042 -1.667439 7.481441 0.000000 0.000937 -0.001514
68 8.000000 0.000000 0.000000 0.000000 -0.365786 0.000000
69 -3.547715 2.053023 2.506176 1.570796 0.000000 0.000000
70 -5.336685 0.265847 -8.541546 0.085800 -0.344274 -0.014831
71 0.032300 -4.377939 -4.331139 0.000000 0.000000 0.000000
72 -0.063699 -2.571496 4.307481 -0.104772 0.001454 -0.001815
73 0.000000 0.000000 0.000000 0.000000 0.000000 0.000000
74 0.421262 -2.516541 -1.807297 0.000000 0.000000 0.000000
75 -0.480304 0.849103 9.288738 0.000000 0.000937 -0.001514
76 0.061285 0.000096 -2.394613 0.000000 0.000000 0.000000
77 0.002241 1.667430 -5.086772 0.000000 0.000000 0.000000
78 0.000000 0.000000 0.000000 0.000000 0.000000 0.000000
79 0.000000 0.000000 0.000000 -0.104771 0.000517 -0.000301
80 0.000000 0.000000 0.000000 0.000000 0.000000 0.000000
81 -0.057368 -1.416994 7.468351 -0.105853 -0.001122 0.061040
82 -8.000000 0.000000 0.000000 -0.085834 0.344266 -0.015026
83 0.000156 0.385903 39.987263 1.570796 0.000000 0.000000
84 0.382079 -7.927589 -4.764480 0.043305 -0.000377 0.026598
85 0.000000 3.980640 -0.064522 1.570796 0.083193 1.570796
86 0.000000 0.000000 0.000000 -0.025035 -0.023701 0.137222
87 0.000000 0.000000 0.000000 0.000000 0.000000 0.116415
88 3.256772 0.380860 0.000000 -0.025273 0.007473 0.152012
89 0.000000 0.000000 0.000000 0.000000 0.000000 -0.002481
90 3.543974 -0.008791 0.000000 -0.017207 0.058416 0.176464
91 0.000000 0.000000 0.000000 0.000000 0.000000 -0.095242
92 5.637959 -0.538598 0.000000 -0.016645 0.072766 0.075437
93 0.000000 0.000000 0.000000 0.000000 0.000000 0.003981
94 4.682045 0.018637 0.000000 -0.007129 -0.154352 0.173069
95 0.000000 0.000000 0.000000 3.141590 0.000000 0.612858
96 3.424439 2.408000 0.000000 0.062798 -0.010725 -0.424378
97 0.000000 0.000000 0.000000 3.141591 0.000000 0.094152
98 3.362837 1.607636 1.500000 0.057947 -1.099718 -1.791586
99 0.000000 0.000000 0.000000 -0.091310 0.012562 -0.003129
100 3.362837 1.607636 -1.500000 -0.136793 1.099718 -1.791586
101 0.000000 0.000000 0.000000 0.159503 0.005036 0.228254
102 4.476193 -0.173285 51.246494 1.570796 0.000000 0.000000
103 14.042627 -12.617314 -1.059495 0.000000 0.000000 0.000000
104 0.000000 9.000000 0.000000 0.000000 0.000000 0.000000
105 0.000000 0.000000 0.000000 0.000000 0.000000 0.000000
106 0.000000 0.000000 -10.000000 0.000000 0.000000 0.000000
107 -5.842497 0.477908 1.898344 0.000000 0.000000 0.000000
108 10.476091 4.353079 43.580135 -0.638126 0.514513 -0.406989
109 10.060622 -0.000017 -0.000028 1.552053 0.178087 0.070973
110 0.000000 0.000000 0.000000 -0.030200 -0.004688 0.363994
111 0.000000 0.000000 0.000000 -0.522403 0.000000 0.000000
112 0.000000 0.000000 0.000000 0.000000 0.000000 0.000000
113 -5.917249 0.789504 51.010830 1.570796 0.000000 0.000000
114 -14.160390 -12.485852 -1.637722 0.000000 0.000000 0.000000
115 0.000000 9.000000 0.000000 0.000000 0.000000 0.000000
116 0.000005 0.000022 -0.000003 0.000000 0.000000 0.000000
117 -0.000005 -0.000022 -9.999997 3.141592 -3.141592 3.141592
118 5.848145 0.743270 1.922454 0.000000 0.000000 0.000000
119 -11.985120 5.612720 43.582687 -2.553878 0.526744 -2.766586
120 10.060604 -0.000010 0.000016 1.589540 -0.178090 0.070970
121 0.000000 0.000000 0.000000 0.308551 -0.336207 -0.438291
122 0.000000 0.000000 0.000000 -2.619810 0.000000 0.000000
123 0.000000 0.000000 0.000000 0.000000 0.000000 0.000000
124 3.871192 5.149068 32.152493 1.570796 0.000000 0.000000
125 0.000000 0.000000 0.000000 0.000000 0.000000 0.000000
126 0.000000 0.000000 -10.000000 0.000000 0.000000 0.000000
127 0.420762 -4.137319 0.905741 0.000000 0.000000 0.000000
128 -3.106722 5.151699 31.966852 1.570796 0.000000 0.000000
129 0.000000 0.000000 0.000000 0.000000 0.000000 0.000000
130 0.000000 0.000000 -10.000000 0.000000 0.000000 0.000000
131 0.337305 2.655831 -0.365023 0.000000 0.000000 0.000000
time 1
0 0.000000 0.000000 0.000000 1.570796 0.000000 0.000000
1 0.382235 5.150383 32.059673 1.614112 -0.026598 -0.000377
2 0.000000 0.000000 0.000000 0.000000 0.000000 0.000000
3 3.490192 0.000000 0.000000 4.570180 -0.393645 -7.469963
4 17.312614 0.000000 0.000000 0.000000 0.000000 0.581570
5 16.130360 0.000000 0.000000 -0.411130 -0.103371 -1.369802
6 5.353091 0.000000 0.000000 0.018210 -0.026476 -0.316615
7 -3.490192 0.000000 0.000000 7.884715 -2.856497 -11.228844
8 17.312614 0.000000 0.000000 0.000000 0.000000 0.881000
9 16.130360 0.000000 0.000000 0.308536 0.217687 -1.739072
10 5.353091 0.000000 0.000000 -0.108343 0.021552 -0.421653
11 0.000000 3.980640 -0.064522 1.546729 -0.170395 1.549860
12 3.278966 0.000000 0.000000 -0.025291 0.007410 0.033117
13 3.543985 0.000000 0.000000 -0.022689 0.056514 0.083565
14 5.663627 0.000000 0.000000 -0.016355 0.072832 0.174670
15 4.682082 0.000000 0.000000 3.046548 -0.122010 0.787205
16 4.186316 0.000000 0.000000 0.061513 0.016576 0.943257
17 3.369210 1.594238 1.500000 -0.028768 -1.086990 -1.800717
18 4.179417 0.000000 0.000000 -1.834275 0.064115 -1.053408
19 10.735911 0.000000 0.000000 0.000000 0.000000 -0.859400
20 10.060622 -0.000017 -0.000028 1.000304 -0.185930 0.072993
21 2.888015 0.275892 -1.268036 0.456245 0.553647 0.150457
22 2.059619 0.000000 0.000000 -0.009100 -0.014494 -0.560690
23 1.413883 0.000000 0.000000 -0.034493 -0.066093 -0.481466
24 3.061202 0.168356 -0.385494 0.508434 0.196649 0.148701
25 2.508612 0.000000 0.000000 0.007855 0.012765 -0.551661
26 2.100857 0.000000 0.000000 -0.032504 -0.054996 -0.534173
27 3.430954 -0.121082 0.402565 0.531074 0.040957 0.136571
28 2.573873 0.000000 0.000000 -0.034598 -0.081423 -0.402342
29 2.362709 0.000000 0.000000 0.056123 0.073448 -0.653421
30 3.440184 -0.578705 1.137345 0.587081 -0.192757 0.216853
31 2.501091 0.000000 0.000000 -0.010757 -0.021484 -0.464276
32 2.170917 0.000000 0.000000 0.028566 0.062255 -0.430538
33 0.955230 -1.097456 0.270379 2.413279 -0.759981 -0.883250
34 1.963946 0.000000 0.000000 0.000000 -0.045527 -0.106288
35 1.868832 0.000000 0.000000 0.000000 0.019567 -0.562827
36 3.369210 1.594238 -1.500000 0.466953 1.084832 -1.296658
37 4.179417 0.000000 0.000000 1.770522 0.116454 -1.013736
38 10.735911 0.000000 0.000000 0.000000 0.000000 -0.849698
39 10.060604 -0.000010 0.000016 -0.810150 0.251531 -0.268317
40 2.888032 0.275104 1.268207 -0.489817 -0.676142 0.058655
41 2.059619 0.000000 0.000000 0.014073 0.022427 -0.560457
42 1.413883 0.000000 0.000000 0.034493 0.066093 -0.481466
43 3.061220 0.168117 0.385599 -0.518506 -0.174225 0.046249
44 2.508612 0.000000 0.000000 -0.003829 -0.006221 -0.551762
45 2.100857 0.000000 0.000000 0.032504 0.054996 -0.534173
46 3.430974 -0.120831 -0.402640 -0.516284 0.025867 -0.042281
47 2.573873 0.000000 0.000000 0.033895 0.079692 -0.402671
48 2.362709 0.000000 0.000000 -0.056123 -0.073448 -0.653421
49 3.440207 -0.577997 -1.137703 -0.554345 0.379772 0.069570
50 2.501091 0.000000 0.000000 0.008337 0.016641 -0.464460
51 2.170917 0.000000 0.000000 -0.028566 -0.062255 -0.430538
52 0.955254 -1.097296 -0.271062 -2.417156 0.764133 -0.888584
53 1.963946 0.000000 0.000000 0.000000 0.049433 -0.128248
54 1.868832 0.000000 0.000000 0.000000 -0.019567 -0.788824
55 3.547715 2.053023 2.506176 1.570796 0.000000 0.000000
56 11.868575 -0.144615 -0.682784 0.000000 0.365786 0.000000
57 0.032300 -4.377939 -4.331139 0.000000 0.000000 0.000000
58 -0.002340 -2.491005 4.197046 0.000000 0.000937 -0.001514
59 0.000000 0.000000 0.000000 0.000000 0.000000 0.000000
60 -0.421262 -2.516541 -1.807297 0.000000 0.000000 0.000000
61 0.480304 0.849103 9.288738 0.000000 0.000937 -0.001514
62 -0.056798 -0.000083 -2.394724 0.000000 0.000000 0.000000
63 0.002241 1.667430 -5.086772 0.000000 0.000000 0.000000
64 0.000000 0.000000 0.000000 0.000000 0.000000 0.000000
65 0.000000 0.000000 0.000000 0.000000 0.000000 0.000000
66 0.000000 0.000000 0.000000 0.000000 0.000000 0.000000
67 0.059042 -1.667439 7.481441 0.000000 0.000937 -0.001514
68 8.000000 0.000000 0.000000 0.000000 -0.365786 0.000000
69 -3.547715 2.053023 2.506176 1.570796 0.000000 0.000000
70 -5.336685 0.265847 -8.541546 0.085800 -0.344274 -0.014831
71 0.032300 -4.377939 -4.331139 0.000000 0.000000 0.000000
72 -0.063699 -2.571496 4.307481 -0.104772 0.001454 -0.001815
73 0.000000 0.000000 0.000000 0.000000 0.000000 0.000000
74 0.421262 -2.516541 -1.807297 0.000000 0.000000 0.000000
75 -0.480304 0.849103 9.288738 0.000000 0.000937 -0.001514
76 0.061285 0.000096 -2.394613 0.000000 0.000000 0.000000
77 0.002241 1.667430 -5.086772 0.000000 0.000000 0.000000
78 0.000000 0.000000 0.000000 0.000000 0.000000 0.000000
79 0.000000 0.000000 0.000000 -0.104771 0.000517 -0.000301
80 0.000000 0.000000 0.000000 0.000000 0.000000 0.000000
81 -0.057368 -1.416994 7.468351 -0.105853 -0.001122 0.061040
82 -8.000000 0.000000 0.000000 -0.085834 0.344266 -0.015026
83 0.000156 0.385903 39.987263 1.570796 0.000000 0.000000
84 0.382079 -7.927589 -4.764480 0.043305 -0.000377 0.026598
85 0.000000 3.980640 -0.064522 1.570796 0.083193 1.570796
86 0.000000 0.000000 0.000000 -0.025035 -0.023701 0.137222
87 0.000000 0.000000 0.000000 0.000000 0.000000 0.116415
88 3.256772 0.380860 0.000000 -0.025273 0.007473 0.152012
89 0.000000 0.000000 0.000000 0.000000 0.000000 -0.002481
90 3.543974 -0.008791 0.000000 -0.017207 0.058416 0.176464
91 0.000000 0.000000 0.000000 0.000000 0.000000 -0.095242
92 5.637959 -0.538598 0.000000 -0.016645 0.072766 0.075437
93 0.000000 0.000000 0.000000 0.000000 0.000000 0.003981
94 4.682045 0.018637 0.000000 -0.007129 -0.154352 0.173069
95 0.000000 0.000000 0.000000 3.141590 0.000000 0.612858
96 3.424439 2.408000 0.000000 0.062798 -0.010725 -0.424378
97 0.000000 0.000000 0.000000 3.141591 0.000000 0.094152
98 3.362837 1.607636 1.500000 0.057947 -1.099718 -1.791586
99 0.000000 0.000000 0.000000 -0.091310 0.012562 -0.003129
100 3.362837 1.607636 -1.500000 -0.136793 1.099718 -1.791586
101 0.000000 0.000000 0.000000 0.159503 0.005036 0.228254
102 4.476193 -0.173285 51.246494 1.570796 0.000000 0.000000
103 14.042627 -12.617314 -1.059495 0.000000 0.000000 0.000000
104 0.000000 9.000000 0.000000 0.000000 0.000000 0.000000
105 0.000000 0.000000 0.000000 0.000000 0.000000 0.000000
106 0.000000 0.000000 -10.000000 0.000000 0.000000 0.000000
107 -5.842497 0.477908 1.898344 0.000000 0.000000 0.000000
108 10.476091 4.353079 43.580135 -0.638126 0.514513 -0.406989
109 10.060622 -0.000017 -0.000028 1.552053 0.178087 0.070973
110 0.000000 0.000000 0.000000 -0.030200 -0.004688 0.363994
111 0.000000 0.000000 0.000000 -0.522403 0.000000 0.000000
112 0.000000 0.000000 0.000000 0.000000 0.000000 0.000000
113 -5.917249 0.789504 51.010830 1.570796 0.000000 0.000000
114 -14.160390 -12.485852 -1.637722 0.000000 0.000000 0.000000
115 0.000000 9.000000 0.000000 0.000000 0.000000 0.000000
116 0.000005 0.000022 -0.000003 0.000000 0.000000 0.000000
117 -0.000005 -0.000022 -9.999997 3.141592 -3.141592 3.141592
118 5.848145 0.743270 1.922454 0.000000 0.000000 0.000000
119 -11.985120 5.612720 43.582687 -2.553878 0.526744 -2.766586
120 10.060604 -0.000010 0.000016 1.589540 -0.178090 0.070970
121 0.000000 0.000000 0.000000 0.308551 -0.336207 -0.438291
122 0.000000 0.000000 0.000000 -2.619810 0.000000 0.000000
123 0.000000 0.000000 0.000000 0.000000 0.000000 0.000000
124 3.871192 5.149068 32.152493 1.570796 0.000000 0.000000
125 0.000000 0.000000 0.000000 0.000000 0.000000 0.000000
126 0.000000 0.000000 -10.000000 0.000000 0.000000 0.000000
127 0.420762 -4.137319 0.905741 0.000000 0.000000 0.000000
128 -3.106722 5.151699 31.966852 1.570796 0.000000 0.000000
129 0.000000 0.000000 0.000000 0.000000 0.000000 0.000000
130 0.000000 0.000000 -10.000000 0.000000 0.000000 0.000000
131 0.337305 2.655831 -0.365023 0.000000 0.000000 0.000000
time 2
0 0.000000 0.000000 0.000000 1.570796 0.000000 0.000000
1 0.382235 5.150383 32.059673 1.614112 -0.026598 -0.000377
2 0.000000 0.000000 0.000000 0.000000 0.000000 0.000000
3 3.490192 0.000000 0.000000 4.570180 -0.393645 -7.469963
4 17.312614 0.000000 0.000000 0.000000 0.000000 0.581570
5 16.130360 0.000000 0.000000 -0.411130 -0.103371 -1.369802
6 5.353091 0.000000 0.000000 0.018210 -0.026476 -0.316615
7 -3.490192 0.000000 0.000000 7.884715 -2.856497 -11.228844
8 17.312614 0.000000 0.000000 0.000000 0.000000 0.881000
9 16.130360 0.000000 0.000000 0.308536 0.217687 -1.739072
10 5.353091 0.000000 0.000000 -0.108343 0.021552 -0.421653
11 0.000000 3.980640 -0.064522 1.546729 -0.170395 1.549860
12 3.278966 0.000000 0.000000 -0.025291 0.007410 0.033117
13 3.543985 0.000000 0.000000 -0.022689 0.056514 0.083565
14 5.663627 0.000000 0.000000 -0.016355 0.072832 0.174670
15 4.682082 0.000000 0.000000 3.046548 -0.122010 0.787205
16 4.186316 0.000000 0.000000 0.061513 0.016576 0.943257
17 3.369210 1.594238 1.500000 -0.028768 -1.086990 -1.800717
18 4.179417 0.000000 0.000000 -1.834275 0.064115 -1.053408
19 10.735911 0.000000 0.000000 0.000000 0.000000 -0.859400
20 10.060622 -0.000017 -0.000028 1.000304 -0.185930 0.072993
21 2.888015 0.275892 -1.268036 0.456245 0.553647 0.150457
22 2.059619 0.000000 0.000000 -0.009100 -0.014494 -0.560690
23 1.413883 0.000000 0.000000 -0.034493 -0.066093 -0.481466
24 3.061202 0.168356 -0.385494 0.508434 0.196649 0.148701
25 2.508612 0.000000 0.000000 0.007855 0.012765 -0.551661
26 2.100857 0.000000 0.000000 -0.032504 -0.054996 -0.534173
27 3.430954 -0.121082 0.402565 0.531074 0.040957 0.136571
28 2.573873 0.000000 0.000000 -0.034598 -0.081423 -0.402342
29 2.362709 0.000000 0.000000 0.056123 0.073448 -0.653421
30 3.440184 -0.578705 1.137345 0.587081 -0.192757 0.216853
31 2.501091 0.000000 0.000000 -0.010757 -0.021484 -0.464276
32 2.170917 0.000000 0.000000 0.028566 0.062255 -0.430538
33 0.955230 -1.097456 0.270379 2.413279 -0.759981 -0.883250
34 1.963946 0.000000 0.000000 0.000000 -0.045527 -0.106288
35 1.868832 0.000000 0.000000 0.000000 0.019567 -0.562827
36 3.369210 1.594238 -1.500000 0.466953 1.084832 -1.296658
37 4.179417 0.000000 0.000000 1.770522 0.116454 -1.013736
38 10.735911 0.000000 0.000000 0.000000 0.000000 -0.849698
39 10.060604 -0.000010 0.000016 -0.810150 0.251531 -0.268317
40 2.888032 0.275104 1.268207 -0.489817 -0.676142 0.058655
41 2.059619 0.000000 0.000000 0.014073 0.022427 -0.560457
42 1.413883 0.000000 0.000000 0.034493 0.066093 -0.481466
43 3.061220 0.168117 0.385599 -0.518506 -0.174225 0.046249
44 2.508612 0.000000 0.000000 -0.003829 -0.006221 -0.551762
45 2.100857 0.000000 0.000000 0.032504 0.054996 -0.534173
46 3.430974 -0.120831 -0.402640 -0.516284 0.025867 -0.042281
47 2.573873 0.000000 0.000000 0.033895 0.079692 -0.402671
48 2.362709 0.000000 0.000000 -0.056123 -0.073448 -0.653421
49 3.440207 -0.577997 -1.137703 -0.554345 0.379772 0.069570
50 2.501091 0.000000 0.000000 0.008337 0.016641 -0.464460
51 2.170917 0.000000 0.000000 -0.028566 -0.062255 -0.430538
52 0.955254 -1.097296 -0.271062 -2.417156 0.764133 -0.888584
53 1.963946 0.000000 0.000000 0.000000 0.049433 -0.128248
54 1.868832 0.000000 0.000000 0.000000 -0.019567 -0.788824
55 3.547715 2.053023 2.506176 1.570796 0.000000 0.000000
56 11.868575 -0.144615 -0.682784 0.000000 0.365786 0.000000
57 0.032300 -4.377939 -4.331139 0.000000 0.000000 0.000000
58 -0.002340 -2.491005 4.197046 0.000000 0.000937 -0.001514
59 0.000000 0.000000 0.000000 0.000000 0.000000 0.000000
60 -0.421262 -2.516541 -1.807297 0.000000 0.000000 0.000000
61 0.480304 0.849103 9.288738 0.000000 0.000937 -0.001514
62 -0.056798 -0.000083 -2.394724 0.000000 0.000000 0.000000
63 0.002241 1.667430 -5.086772 0.000000 0.000000 0.000000
64 0.000000 0.000000 0.000000 0.000000 0.000000 0.000000
65 0.000000 0.000000 0.000000 0.000000 0.000000 0.000000
66 0.000000 0.000000 0.000000 0.000000 0.000000 0.000000
67 0.059042 -1.667439 7.481441 0.000000 0.000937 -0.001514
68 8.000000 0.000000 0.000000 0.000000 -0.365786 0.000000
69 -3.547715 2.053023 2.506176 1.570796 0.000000 0.000000
70 -5.336685 0.265847 -8.541546 0.085800 -0.344274 -0.014831
71 0.032300 -4.377939 -4.331139 0.000000 0.000000 0.000000
72 -0.063699 -2.571496 4.307481 -0.104772 0.001454 -0.001815
73 0.000000 0.000000 0.000000 0.000000 0.000000 0.000000
74 0.421262 -2.516541 -1.807297 0.000000 0.000000 0.000000
75 -0.480304 0.849103 9.288738 0.000000 0.000937 -0.001514
76 0.061285 0.000096 -2.394613 0.000000 0.000000 0.000000
77 0.002241 1.667430 -5.086772 0.000000 0.000000 0.000000
78 0.000000 0.000000 0.000000 0.000000 0.000000 0.000000
79 0.000000 0.000000 0.000000 -0.104771 0.000517 -0.000301
80 0.000000 0.000000 0.000000 0.000000 0.000000 0.000000
81 -0.057368 -1.416994 7.468351 -0.105853 -0.001122 0.061040
82 -8.000000 0.000000 0.000000 -0.085834 0.344266 -0.015026
83 0.000156 0.385903 39.987263 1.570796 0.000000 0.000000
84 0.382079 -7.927589 -4.764480 0.043305 -0.000377 0.026598
85 0.000000 3.980640 -0.064522 1.570796 0.083193 1.570796
86 0.000000 0.000000 0.000000 -0.025035 -0.023701 0.137222
87 0.000000 0.000000 0.000000 0.000000 0.000000 0.116415
88 3.256772 0.380860 0.000000 -0.025273 0.007473 0.152012
89 0.000000 0.000000 0.000000 0.000000 0.000000 -0.002481
90 3.543974 -0.008791 0.000000 -0.017207 0.058416 0.176464
91 0.000000 0.000000 0.000000 0.000000 0.000000 -0.095242
92 5.637959 -0.538598 0.000000 -0.016645 0.072766 0.075437
93 0.000000 0.000000 0.000000 0.000000 0.000000 0.003981
94 4.682045 0.018637 0.000000 -0.007129 -0.154352 0.173069
95 0.000000 0.000000 0.000000 3.141590 0.000000 0.612858
96 3.424439 2.408000 0.000000 0.062798 -0.010725 -0.424378
97 0.000000 0.000000 0.000000 3.141591 0.000000 0.094152
98 3.362837 1.607636 1.500000 0.057947 -1.099718 -1.791586
99 0.000000 0.000000 0.000000 -0.091310 0.012562 -0.003129
100 3.362837 1.607636 -1.500000 -0.136793 1.099718 -1.791586
101 0.000000 0.000000 0.000000 0.159503 0.005036 0.228254
102 4.476193 -0.173285 51.246494 1.570796 0.000000 0.000000
103 14.042627 -12.617314 -1.059495 0.000000 0.000000 0.000000
104 0.000000 9.000000 0.000000 0.000000 0.000000 0.000000
105 0.000000 0.000000 0.000000 0.000000 0.000000 0.000000
106 0.000000 0.000000 -10.000000 0.000000 0.000000 0.000000
107 -5.842497 0.477908 1.898344 0.000000 0.000000 0.000000
108 10.476091 4.353079 43.580135 -0.638126 0.514513 -0.406989
109 10.060622 -0.000017 -0.000028 1.552053 0.178087 0.070973
110 0.000000 0.000000 0.000000 -0.030200 -0.004688 0.363994
111 0.000000 0.000000 0.000000 -0.522403 0.000000 0.000000
112 0.000000 0.000000 0.000000 0.000000 0.000000 0.000000
113 -5.917249 0.789504 51.010830 1.570796 0.000000 0.000000
114 -14.160390 -12.485852 -1.637722 0.000000 0.000000 0.000000
115 0.000000 9.000000 0.000000 0.000000 0.000000 0.000000
116 0.000005 0.000022 -0.000003 0.000000 0.000000 0.000000
117 -0.000005 -0.000022 -9.999997 3.141592 -3.141592 3.141592
118 5.848145 0.743270 1.922454 0.000000 0.000000 0.000000
119 -11.985120 5.612720 43.582687 -2.553878 0.526744 -2.766586
120 10.060604 -0.000010 0.000016 1.589540 -0.178090 0.070970
121 0.000000 0.000000 0.000000 0.308551 -0.336207 -0.438291
122 0.000000 0.000000 0.000000 -2.619810 0.000000 0.000000
123 0.000000 0.000000 0.000000 0.000000 0.000000 0.000000
124 3.871192 5.149068 32.152493 1.570796 0.000000 0.000000
125 0.000000 0.000000 0.000000 0.000000 0.000000 0.000000
126 0.000000 0.000000 -10.000000 0.000000 0.000000 0.000000
127 0.420762 -4.137319 0.905741 0.000000 0.000000 0.000000
128 -3.106722 5.151699 31.966852 1.570796 0.000000 0.000000
129 0.000000 0.000000 0.000000 0.000000 0.000000 0.000000
130 0.000000 0.000000 -10.000000 0.000000 0.000000 0.000000
131 0.337305 2.655831 -0.365023 0.000000 0.000000 0.000000
time 3
0 0.000000 0.000000 0.000000 1.570796 0.000000 0.000000
1 0.382235 5.150383 32.059673 1.614112 -0.026598 -0.000377
2 0.000000 0.000000 0.000000 0.000000 0.000000 0.000000
3 3.490192 0.000000 0.000000 4.570180 -0.393645 -7.469963
4 17.312614 0.000000 0.000000 0.000000 0.000000 0.581570
5 16.130360 0.000000 0.000000 -0.411130 -0.103371 -1.369802
6 5.353091 0.000000 0.000000 0.018210 -0.026476 -0.316615
7 -3.490192 0.000000 0.000000 7.884715 -2.856497 -11.228844
8 17.312614 0.000000 0.000000 0.000000 0.000000 0.881000
9 16.130360 0.000000 0.000000 0.308536 0.217687 -1.739072
10 5.353091 0.000000 0.000000 -0.108343 0.021552 -0.421653
11 0.000000 3.980640 -0.064522 1.546729 -0.170395 1.549860
12 3.278966 0.000000 0.000000 -0.025291 0.007410 0.033117
13 3.543985 0.000000 0.000000 -0.022689 0.056514 0.083565
14 5.663627 0.000000 0.000000 -0.016355 0.072832 0.174670
15 4.682082 0.000000 0.000000 3.046548 -0.122010 0.787205
16 4.186316 0.000000 0.000000 0.061513 0.016576 0.943257
17 3.369210 1.594238 1.500000 -0.028768 -1.086990 -1.800717
18 4.179417 0.000000 0.000000 -1.834275 0.064115 -1.053408
19 10.735911 0.000000 0.000000 0.000000 0.000000 -0.859400
20 10.060622 -0.000017 -0.000028 1.000304 -0.185930 0.072993
21 2.888015 0.275892 -1.268036 0.456245 0.553647 0.150457
22 2.059619 0.000000 0.000000 -0.009100 -0.014494 -0.560690
23 1.413883 0.000000 0.000000 -0.034493 -0.066093 -0.481466
24 3.061202 0.168356 -0.385494 0.508434 0.196649 0.148701
25 2.508612 0.000000 0.000000 0.007855 0.012765 -0.551661
26 2.100857 0.000000 0.000000 -0.032504 -0.054996 -0.534173
27 3.430954 -0.121082 0.402565 0.531074 0.040957 0.136571
28 2.573873 0.000000 0.000000 -0.034598 -0.081423 -0.402342
29 2.362709 0.000000 0.000000 0.056123 0.073448 -0.653421
30 3.440184 -0.578705 1.137345 0.587081 -0.192757 0.216853
31 2.501091 0.000000 0.000000 -0.010757 -0.021484 -0.464276
32 2.170917 0.000000 0.000000 0.028566 0.062255 -0.430538
33 0.955230 -1.097456 0.270379 2.413279 -0.759981 -0.883250
34 1.963946 0.000000 0.000000 0.000000 -0.045527 -0.106288
35 1.868832 0.000000 0.000000 0.000000 0.019567 -0.562827
36 3.369210 1.594238 -1.500000 0.466953 1.084832 -1.296658
37 4.179417 0.000000 0.000000 1.770522 0.116454 -1.013736
38 10.735911 0.000000 0.000000 0.000000 0.000000 -0.849698
39 10.060604 -0.000010 0.000016 -0.810150 0.251531 -0.268317
40 2.888032 0.275104 1.268207 -0.489817 -0.676142 0.058655
41 2.059619 0.000000 0.000000 0.014073 0.022427 -0.560457
42 1.413883 0.000000 0.000000 0.034493 0.066093 -0.481466
43 3.061220 0.168117 0.385599 -0.518506 -0.174225 0.046249
44 2.508612 0.000000 0.000000 -0.003829 -0.006221 -0.551762
45 2.100857 0.000000 0.000000 0.032504 0.054996 -0.534173
46 3.430974 -0.120831 -0.402640 -0.516284 0.025867 -0.042281
47 2.573873 0.000000 0.000000 0.033895 0.079692 -0.402671
48 2.362709 0.000000 0.000000 -0.056123 -0.073448 -0.653421
49 3.440207 -0.577997 -1.137703 -0.554345 0.379772 0.069570
50 2.501091 0.000000 0.000000 0.008337 0.016641 -0.464460
51 2.170917 0.000000 0.000000 -0.028566 -0.062255 -0.430538
52 0.955254 -1.097296 -0.271062 -2.417156 0.764133 -0.888584
53 1.963946 0.000000 0.000000 0.000000 0.049433 -0.128248
54 1.868832 0.000000 0.000000 0.000000 -0.019567 -0.788824
55 3.547715 2.053023 2.506176 1.570796 0.000000 0.000000
56 11.868575 -0.144615 -0.682784 0.000000 0.365786 0.000000
57 0.032300 -4.377939 -4.331139 0.000000 0.000000 0.000000
58 -0.002340 -2.491005 4.197046 0.000000 0.000937 -0.001514
59 0.000000 0.000000 0.000000 0.000000 0.000000 0.000000
60 -0.421262 -2.516541 -1.807297 0.000000 0.000000 0.000000
61 0.480304 0.849103 9.288738 0.000000 0.000937 -0.001514
62 -0.056798 -0.000083 -2.394724 0.000000 0.000000 0.000000
63 0.002241 1.667430 -5.086772 0.000000 0.000000 0.000000
64 0.000000 0.000000 0.000000 0.000000 0.000000 0.000000
65 0.000000 0.000000 0.000000 0.000000 0.000000 0.000000
66 0.000000 0.000000 0.000000 0.000000 0.000000 0.000000
67 0.059042 -1.667439 7.481441 0.000000 0.000937 -0.001514
68 8.000000 0.000000 0.000000 0.000000 -0.365786 0.000000
69 -3.547715 2.053023 2.506176 1.570796 0.000000 0.000000
70 -5.336685 0.265847 -8.541546 0.085800 -0.344274 -0.014831
71 0.032300 -4.377939 -4.331139 0.000000 0.000000 0.000000
72 -0.063699 -2.571496 4.307481 -0.104772 0.001454 -0.001815
73 0.000000 0.000000 0.000000 0.000000 0.000000 0.000000
74 0.421262 -2.516541 -1.807297 0.000000 0.000000 0.000000
75 -0.480304 0.849103 9.288738 0.000000 0.000937 -0.001514
76 0.061285 0.000096 -2.394613 0.000000 0.000000 0.000000
77 0.002241 1.667430 -5.086772 0.000000 0.000000 0.000000
78 0.000000 0.000000 0.000000 0.000000 0.000000 0.000000
79 0.000000 0.000000 0.000000 -0.104771 0.000517 -0.000301
80 0.000000 0.000000 0.000000 0.000000 0.000000 0.000000
81 -0.057368 -1.416994 7.468351 -0.105853 -0.001122 0.061040
82 -8.000000 0.000000 0.000000 -0.085834 0.344266 -0.015026
83 0.000156 0.385903 39.987263 1.570796 0.000000 0.000000
84 0.382079 -7.927589 -4.764480 0.043305 -0.000377 0.026598
85 0.000000 3.980640 -0.064522 1.570796 0.083193 1.570796
86 0.000000 0.000000 0.000000 -0.025035 -0.023701 0.137222
87 0.000000 0.000000 0.000000 0.000000 0.000000 0.116415
88 3.256772 0.380860 0.000000 -0.025273 0.007473 0.152012
89 0.000000 0.000000 0.000000 0.000000 0.000000 -0.002481
90 3.543974 -0.008791 0.000000 -0.017207 0.058416 0.176464
91 0.000000 0.000000 0.000000 0.000000 0.000000 -0.095242
92 5.637959 -0.538598 0.000000 -0.016645 0.072766 0.075437
93 0.000000 0.000000 0.000000 0.000000 0.000000 0.003981
94 4.682045 0.018637 0.000000 -0.007129 -0.154352 0.173069
95 0.000000 0.000000 0.000000 3.141590 0.000000 0.612858
96 3.424439 2.408000 0.000000 0.062798 -0.010725 -0.424378
97 0.000000 0.000000 0.000000 3.141591 0.000000 0.094152
98 3.362837 1.607636 1.500000 0.057947 -1.099718 -1.791586
99 0.000000 0.000000 0.000000 -0.091310 0.012562 -0.003129
100 3.362837 1.607636 -1.500000 -0.136793 1.099718 -1.791586
101 0.000000 0.000000 0.000000 0.159503 0.005036 0.228254
102 4.476193 -0.173285 51.246494 1.570796 0.000000 0.000000
103 14.042627 -12.617314 -1.059495 0.000000 0.000000 0.000000
104 0.000000 9.000000 0.000000 0.000000 0.000000 0.000000
105 0.000000 0.000000 0.000000 0.000000 0.000000 0.000000
106 0.000000 0.000000 -10.000000 0.000000 0.000000 0.000000
107 -5.842497 0.477908 1.898344 0.000000 0.000000 0.000000
108 10.476091 4.353079 43.580135 -0.638126 0.514513 -0.406989
109 10.060622 -0.000017 -0.000028 1.552053 0.178087 0.070973
110 0.000000 0.000000 0.000000 -0.030200 -0.004688 0.363994
111 0.000000 0.000000 0.000000 -0.522403 0.000000 0.000000
112 0.000000 0.000000 0.000000 0.000000 0.000000 0.000000
113 -5.917249 0.789504 51.010830 1.570796 0.000000 0.000000
114 -14.160390 -12.485852 -1.637722 0.000000 0.000000 0.000000
115 0.000000 9.000000 0.000000 0.000000 0.000000 0.000000
116 0.000005 0.000022 -0.000003 0.000000 0.000000 0.000000
117 -0.000005 -0.000022 -9.999997 3.141592 -3.141592 3.141592
118 5.848145 0.743270 1.922454 0.000000 0.000000 0.000000
119 -11.985120 5.612720 43.582687 -2.553878 0.526744 -2.766586
120 10.060604 -0.000010 0.000016 1.589540 -0.178090 0.070970
121 0.000000 0.000000 0.000000 0.308551 -0.336207 -0.438291
122 0.000000 0.000000 0.000000 -2.619810 0.000000 0.000000
123 0.000000 0.000000 0.000000 0.000000 0.000000 0.000000
124 3.871192 5.149068 32.152493 1.570796 0.000000 0.000000
125 0.000000 0.000000 0.000000 0.000000 0.000000 0.000000
126 0.000000 0.000000 -10.000000 0.000000 0.000000 0.000000
127 0.420762 -4.137319 0.905741 0.000000 0.000000 0.000000
128 -3.106722 5.151699 31.966852 1.570796 0.000000 0.000000
129 0.000000 0.000000 0.000000 0.000000 0.000000 0.000000
130 0.000000 0.000000 -10.000000 0.000000 0.000000 0.000000
131 0.337305 2.655831 -0.365023 0.000000 0.000000 0.000000
time 4
0 0.000000 0.000000 0.000000 1.570796 0.000000 0.000000
1 0.382235 5.150383 32.059673 1.614112 -0.026598 -0.000377
2 0.000000 0.000000 0.000000 0.000000 0.000000 0.000000
3 3.490192 0.000000 0.000000 4.570180 -0.393645 -7.469963
4 17.312614 0.000000 0.000000 0.000000 0.000000 0.581570
5 16.130360 0.000000 0.000000 -0.411130 -0.103371 -1.369802
6 5.353091 0.000000 0.000000 0.018210 -0.026476 -0.316615
7 -3.490192 0.000000 0.000000 7.884715 -2.856497 -11.228844
8 17.312614 0.000000 0.000000 0.000000 0.000000 0.881000
9 16.130360 0.000000 0.000000 0.308536 0.217687 -1.739072
10 5.353091 0.000000 0.000000 -0.108343 0.021552 -0.421653
11 0.000000 3.980640 -0.064522 1.546729 -0.170395 1.549860
12 3.278966 0.000000 0.000000 -0.025291 0.007410 0.033117
13 3.543985 0.000000 0.000000 -0.022689 0.056514 0.083565
14 5.663627 0.000000 0.000000 -0.016355 0.072832 0.174670
15 4.682082 0.000000 0.000000 3.046548 -0.122010 0.787205
16 4.186316 0.000000 0.000000 0.061513 0.016576 0.943257
17 3.369210 1.594238 1.500000 -0.028768 -1.086990 -1.800717
18 4.179417 0.000000 0.000000 -1.834275 0.064115 -1.053408
19 10.735911 0.000000 0.000000 0.000000 0.000000 -0.859400
20 10.060622 -0.000017 -0.000028 1.000304 -0.185930 0.072993
21 2.888015 0.275892 -1.268036 0.456245 0.553647 0.150457
22 2.059619 0.000000 0.000000 -0.009100 -0.014494 -0.560690
23 1.413883 0.000000 0.000000 -0.034493 -0.066093 -0.481466
24 3.061202 0.168356 -0.385494 0.508434 0.196649 0.148701
25 2.508612 0.000000 0.000000 0.007855 0.012765 -0.551661
26 2.100857 0.000000 0.000000 -0.032504 -0.054996 -0.534173
27 3.430954 -0.121082 0.402565 0.531074 0.040957 0.136571
28 2.573873 0.000000 0.000000 -0.034598 -0.081423 -0.402342
29 2.362709 0.000000 0.000000 0.056123 0.073448 -0.653421
30 3.440184 -0.578705 1.137345 0.587081 -0.192757 0.216853
31 2.501091 0.000000 0.000000 -0.010757 -0.021484 -0.464276
32 2.170917 0.000000 0.000000 0.028566 0.062255 -0.430538
33 0.955230 -1.097456 0.270379 2.413279 -0.759981 -0.883250
34 1.963946 0.000000 0.000000 0.000000 -0.045527 -0.106288
35 1.868832 0.000000 0.000000 0.000000 0.019567 -0.562827
36 3.369210 1.594238 -1.500000 0.466953 1.084832 -1.296658
37 4.179417 0.000000 0.000000 1.770522 0.116454 -1.013736
38 10.735911 0.000000 0.000000 0.000000 0.000000 -0.849698
39 10.060604 -0.000010 0.000016 -0.810150 0.251531 -0.268317
40 2.888032 0.275104 1.268207 -0.489817 -0.676142 0.058655
41 2.059619 0.000000 0.000000 0.014073 0.022427 -0.560457
42 1.413883 0.000000 0.000000 0.034493 0.066093 -0.481466
43 3.061220 0.168117 0.385599 -0.518506 -0.174225 0.046249
44 2.508612 0.000000 0.000000 -0.003829 -0.006221 -0.551762
45 2.100857 0.000000 0.000000 0.032504 0.054996 -0.534173
46 3.430974 -0.120831 -0.402640 -0.516284 0.025867 -0.042281
47 2.573873 0.000000 0.000000 0.033895 0.079692 -0.402671
48 2.362709 0.000000 0.000000 -0.056123 -0.073448 -0.653421
49 3.440207 -0.577997 -1.137703 -0.554345 0.379772 0.069570
50 2.501091 0.000000 0.000000 0.008337 0.016641 -0.464460
51 2.170917 0.000000 0.000000 -0.028566 -0.062255 -0.430538
52 0.955254 -1.097296 -0.271062 -2.417156 0.764133 -0.888584
53 1.963946 0.000000 0.000000 0.000000 0.049433 -0.128248
54 1.868832 0.000000 0.000000 0.000000 -0.019567 -0.788824
55 3.547715 2.053023 2.506176 1.570796 0.000000 0.000000
56 11.868575 -0.144615 -0.682784 0.000000 0.365786 0.000000
57 0.032300 -4.377939 -4.331139 0.000000 0.000000 0.000000
58 -0.002340 -2.491005 4.197046 0.000000 0.000937 -0.001514
59 0.000000 0.000000 0.000000 0.000000 0.000000 0.000000
60 -0.421262 -2.516541 -1.807297 0.000000 0.000000 0.000000
61 0.480304 0.849103 9.288738 0.000000 0.000937 -0.001514
62 -0.056798 -0.000083 -2.394724 0.000000 0.000000 0.000000
63 0.002241 1.667430 -5.086772 0.000000 0.000000 0.000000
64 0.000000 0.000000 0.000000 0.000000 0.000000 0.000000
65 0.000000 0.000000 0.000000 0.000000 0.000000 0.000000
66 0.000000 0.000000 0.000000 0.000000 0.000000 0.000000
67 0.059042 -1.667439 7.481441 0.000000 0.000937 -0.001514
68 8.000000 0.000000 0.000000 0.000000 -0.365786 0.000000
69 -3.547715 2.053023 2.506176 1.570796 0.000000 0.000000
70 -5.336685 0.265847 -8.541546 0.085800 -0.344274 -0.014831
71 0.032300 -4.377939 -4.331139 0.000000 0.000000 0.000000
72 -0.063699 -2.571496 4.307481 -0.104772 0.001454 -0.001815
73 0.000000 0.000000 0.000000 0.000000 0.000000 0.000000
74 0.421262 -2.516541 -1.807297 0.000000 0.000000 0.000000
75 -0.480304 0.849103 9.288738 0.000000 0.000937 -0.001514
76 0.061285 0.000096 -2.394613 0.000000 0.000000 0.000000
77 0.002241 1.667430 -5.086772 0.000000 0.000000 0.000000
78 0.000000 0.000000 0.000000 0.000000 0.000000 0.000000
79 0.000000 0.000000 0.000000 -0.104771 0.000517 -0.000301
80 0.000000 0.000000 0.000000 0.000000 0.000000 0.000000
81 -0.057368 -1.416994 7.468351 -0.105853 -0.001122 0.061040
82 -8.000000 0.000000 0.000000 -0.085834 0.344266 -0.015026
83 0.000156 0.385903 39.987263 1.570796 0.000000 0.000000
84 0.382079 -7.927589 -4.764480 0.043305 -0.000377 0.026598
85 0.000000 3.980640 -0.064522 1.570796 0.083193 1.570796
86 0.000000 0.000000 0.000000 -0.025035 -0.023701 0.137222
87 0.000000 0.000000 0.000000 0.000000 0.000000 0.116415
88 3.256772 0.380860 0.000000 -0.025273 0.007473 0.152012
89 0.000000 0.000000 0.000000 0.000000 0.000000 -0.002481
90 3.543974 -0.008791 0.000000 -0.017207 0.058416 0.176464
91 0.000000 0.000000 0.000000 0.000000 0.000000 -0.095242
92 5.637959 -0.538598 0.000000 -0.016645 0.072766 0.075437
93 0.000000 0.000000 0.000000 0.000000 0.000000 0.003981
94 4.682045 0.018637 0.000000 -0.007129 -0.154352 0.173069
95 0.000000 0.000000 0.000000 3.141590 0.000000 0.612858
96 3.424439 2.408000 0.000000 0.062798 -0.010725 -0.424378
97 0.000000 0.000000 0.000000 3.141591 0.000000 0.094152
98 3.362837 1.607636 1.500000 0.057947 -1.099718 -1.791586
99 0.000000 0.000000 0.000000 -0.091310 0.012562 -0.003129
100 3.362837 1.607636 -1.500000 -0.136793 1.099718 -1.791586
101 0.000000 0.000000 0.000000 0.159503 0.005036 0.228254
102 4.476193 -0.173285 51.246494 1.570796 0.000000 0.000000
103 14.042627 -12.617314 -1.059495 0.000000 0.000000 0.000000
104 0.000000 9.000000 0.000000 0.000000 0.000000 0.000000
105 0.000000 0.000000 0.000000 0.000000 0.000000 0.000000
106 0.000000 0.000000 -10.000000 0.000000 0.000000 0.000000
107 -5.842497 0.477908 1.898344 0.000000 0.000000 0.000000
108 10.476091 4.353079 43.580135 -0.638126 0.514513 -0.406989
109 10.060622 -0.000017 -0.000028 1.552053 0.178087 0.070973
110 0.000000 0.000000 0.000000 -0.030200 -0.004688 0.363994
111 0.000000 0.000000 0.000000 -0.522403 0.000000 0.000000
112 0.000000 0.000000 0.000000 0.000000 0.000000 0.000000
113 -5.917249 0.789504 51.010830 1.570796 0.000000 0.000000
114 -14.160390 -12.485852 -1.637722 0.000000 0.000000 0.000000
115 0.000000 9.000000 0.000000 0.000000 0.000000 0.000000
116 0.000005 0.000022 -0.000003 0.000000 0.000000 0.000000
117 -0.000005 -0.000022 -9.999997 3.141592 -3.141592 3.141592
118 5.848145 0.743270 1.922454 0.000000 0.000000 0.000000
119 -11.985120 5.612720 43.582687 -2.553878 0.526744 -2.766586
120 10.060604 -0.000010 0.000016 1.589540 -0.178090 0.070970
121 0.000000 0.000000 0.000000 0.308551 -0.336207 -0.438291
122 0.000000 0.000000 0.000000 -2.619810 0.000000 0.000000
123 0.000000 0.000000 0.000000 0.000000 0.000000 0.000000
124 3.871192 5.149068 32.152493 1.570796 0.000000 0.000000
125 0.000000 0.000000 0.000000 0.000000 0.000000 0.000000
126 0.000000 0.000000 -10.000000 0.000000 0.000000 0.000000
127 0.420762 -4.137319 0.905741 0.000000 0.000000 0.000000
128 -3.106722 5.151699 31.966852 1.570796 0.000000 0.000000
129 0.000000 0.000000 0.000000 0.000000 0.000000 0.000000
130 0.000000 0.000000 -10.000000 0.000000 0.000000 0.000000
131 0.337305 2.655831 -0.365023 0.000000 0.000000 0.000000
time 5
0 0.000000 0.000000 0.000000 1.570796 0.000000 0.000000
1 0.382235 5.150383 32.059673 1.614112 -0.026598 -0.000377
2 0.000000 0.000000 0.000000 0.000000 0.000000 0.000000
3 3.490192 0.000000 0.000000 4.570180 -0.393645 -7.469963
4 17.312614 0.000000 0.000000 0.000000 0.000000 0.581570
5 16.130360 0.000000 0.000000 -0.411130 -0.103371 -1.369802
6 5.353091 0.000000 0.000000 0.018210 -0.026476 -0.316615
7 -3.490192 0.000000 0.000000 7.884715 -2.856497 -11.228844
8 17.312614 0.000000 0.000000 0.000000 0.000000 0.881000
9 16.130360 0.000000 0.000000 0.308536 0.217687 -1.739072
10 5.353091 0.000000 0.000000 -0.108343 0.021552 -0.421653
11 0.000000 3.980640 -0.064522 1.546729 -0.170395 1.549860
12 3.278966 0.000000 0.000000 -0.025291 0.007410 0.033117
13 3.543985 0.000000 0.000000 -0.022689 0.056514 0.083565
14 5.663627 0.000000 0.000000 -0.016355 0.072832 0.174670
15 4.682082 0.000000 0.000000 3.046548 -0.122010 0.787205
16 4.186316 0.000000 0.000000 0.061513 0.016576 0.943257
17 3.369210 1.594238 1.500000 -0.028768 -1.086990 -1.800717
18 4.179417 0.000000 0.000000 -1.834275 0.064115 -1.053408
19 10.735911 0.000000 0.000000 0.000000 0.000000 -0.859400
20 10.060622 -0.000017 -0.000028 1.000304 -0.185930 0.072993
21 2.888015 0.275892 -1.268036 0.456245 0.553647 0.150457
22 2.059619 0.000000 0.000000 -0.009100 -0.014494 -0.560690
23 1.413883 0.000000 0.000000 -0.034493 -0.066093 -0.481466
24 3.061202 0.168356 -0.385494 0.508434 0.196649 0.148701
25 2.508612 0.000000 0.000000 0.007855 0.012765 -0.551661
26 2.100857 0.000000 0.000000 -0.032504 -0.054996 -0.534173
27 3.430954 -0.121082 0.402565 0.531074 0.040957 0.136571
28 2.573873 0.000000 0.000000 -0.034598 -0.081423 -0.402342
29 2.362709 0.000000 0.000000 0.056123 0.073448 -0.653421
30 3.440184 -0.578705 1.137345 0.587081 -0.192757 0.216853
31 2.501091 0.000000 0.000000 -0.010757 -0.021484 -0.464276
32 2.170917 0.000000 0.000000 0.028566 0.062255 -0.430538
33 0.955230 -1.097456 0.270379 2.413279 -0.759981 -0.883250
34 1.963946 0.000000 0.000000 0.000000 -0.045527 -0.106288
35 1.868832 0.000000 0.000000 0.000000 0.019567 -0.562827
36 3.369210 1.594238 -1.500000 0.466953 1.084832 -1.296658
37 4.179417 0.000000 0.000000 1.770522 0.116454 -1.013736
38 10.735911 0.000000 0.000000 0.000000 0.000000 -0.849698
39 10.060604 -0.000010 0.000016 -0.810150 0.251531 -0.268317
40 2.888032 0.275104 1.268207 -0.489817 -0.676142 0.058655
41 2.059619 0.000000 0.000000 0.014073 0.022427 -0.560457
42 1.413883 0.000000 0.000000 0.034493 0.066093 -0.481466
43 3.061220 0.168117 0.385599 -0.518506 -0.174225 0.046249
44 2.508612 0.000000 0.000000 -0.003829 -0.006221 -0.551762
45 2.100857 0.000000 0.000000 0.032504 0.054996 -0.534173
46 3.430974 -0.120831 -0.402640 -0.516284 0.025867 -0.042281
47 2.573873 0.000000 0.000000 0.033895 0.079692 -0.402671
48 2.362709 0.000000 0.000000 -0.056123 -0.073448 -0.653421
49 3.440207 -0.577997 -1.137703 -0.554345 0.379772 0.069570
50 2.501091 0.000000 0.000000 0.008337 0.016641 -0.464460
51 2.170917 0.000000 0.000000 -0.028566 -0.062255 -0.430538
52 0.955254 -1.097296 -0.271062 -2.417156 0.764133 -0.888584
53 1.963946 0.000000 0.000000 0.000000 0.049433 -0.128248
54 1.868832 0.000000 0.000000 0.000000 -0.019567 -0.788824
55 3.547715 2.053023 2.506176 1.570796 0.000000 0.000000
56 11.868575 -0.144615 -0.682784 0.000000 0.365786 0.000000
57 0.032300 -4.377939 -4.331139 0.000000 0.000000 0.000000
58 -0.002340 -2.491005 4.197046 0.000000 0.000937 -0.001514
59 0.000000 0.000000 0.000000 0.000000 0.000000 0.000000
60 -0.421262 -2.516541 -1.807297 0.000000 0.000000 0.000000
61 0.480304 0.849103 9.288738 0.000000 0.000937 -0.001514
62 -0.056798 -0.000083 -2.394724 0.000000 0.000000 0.000000
63 0.002241 1.667430 -5.086772 0.000000 0.000000 0.000000
64 0.000000 0.000000 0.000000 0.000000 0.000000 0.000000
65 0.000000 0.000000 0.000000 0.000000 0.000000 0.000000
66 0.000000 0.000000 0.000000 0.000000 0.000000 0.000000
67 0.059042 -1.667439 7.481441 0.000000 0.000937 -0.001514
68 8.000000 0.000000 0.000000 0.000000 -0.365786 0.000000
69 -3.547715 2.053023 2.506176 1.570796 0.000000 0.000000
70 -5.336685 0.265847 -8.541546 0.085800 -0.344274 -0.014831
71 0.032300 -4.377939 -4.331139 0.000000 0.000000 0.000000
72 -0.063699 -2.571496 4.307481 -0.104772 0.001454 -0.001815
73 0.000000 0.000000 0.000000 0.000000 0.000000 0.000000
74 0.421262 -2.516541 -1.807297 0.000000 0.000000 0.000000
75 -0.480304 0.849103 9.288738 0.000000 0.000937 -0.001514
76 0.061285 0.000096 -2.394613 0.000000 0.000000 0.000000
77 0.002241 1.667430 -5.086772 0.000000 0.000000 0.000000
78 0.000000 0.000000 0.000000 0.000000 0.000000 0.000000
79 0.000000 0.000000 0.000000 -0.104771 0.000517 -0.000301
80 0.000000 0.000000 0.000000 0.000000 0.000000 0.000000
81 -0.057368 -1.416994 7.468351 -0.105853 -0.001122 0.061040
82 -8.000000 0.000000 0.000000 -0.085834 0.344266 -0.015026
83 0.000156 0.385903 39.987263 1.570796 0.000000 0.000000
84 0.382079 -7.927589 -4.764480 0.043305 -0.000377 0.026598
85 0.000000 3.980640 -0.064522 1.570796 0.083193 1.570796
86 0.000000 0.000000 0.000000 -0.025035 -0.023701 0.137222
87 0.000000 0.000000 0.000000 0.000000 0.000000 0.116415
88 3.256772 0.380860 0.000000 -0.025273 0.007473 0.152012
89 0.000000 0.000000 0.000000 0.000000 0.000000 -0.002481
90 3.543974 -0.008791 0.000000 -0.017207 0.058416 0.176464
91 0.000000 0.000000 0.000000 0.000000 0.000000 -0.095242
92 5.637959 -0.538598 0.000000 -0.016645 0.072766 0.075437
93 0.000000 0.000000 0.000000 0.000000 0.000000 0.003981
94 4.682045 0.018637 0.000000 -0.007129 -0.154352 0.173069
95 0.000000 0.000000 0.000000 3.141590 0.000000 0.612858
96 3.424439 2.408000 0.000000 0.062798 -0.010725 -0.424378
97 0.000000 0.000000 0.000000 3.141591 0.000000 0.094152
98 3.362837 1.607636 1.500000 0.057947 -1.099718 -1.791586
99 0.000000 0.000000 0.000000 -0.091310 0.012562 -0.003129
100 3.362837 1.607636 -1.500000 -0.136793 1.099718 -1.791586
101 0.000000 0.000000 0.000000 0.159503 0.005036 0.228254
102 4.476193 -0.173285 51.246494 1.570796 0.000000 0.000000
103 14.042627 -12.617314 -1.059495 0.000000 0.000000 0.000000
104 0.000000 9.000000 0.000000 0.000000 0.000000 0.000000
105 0.000000 0.000000 0.000000 0.000000 0.000000 0.000000
106 0.000000 0.000000 -10.000000 0.000000 0.000000 0.000000
107 -5.842497 0.477908 1.898344 0.000000 0.000000 0.000000
108 10.476091 4.353079 43.580135 -0.638126 0.514513 -0.406989
109 10.060622 -0.000017 -0.000028 1.552053 0.178087 0.070973
110 0.000000 0.000000 0.000000 -0.030200 -0.004688 0.363994
111 0.000000 0.000000 0.000000 -0.522403 0.000000 0.000000
112 0.000000 0.000000 0.000000 0.000000 0.000000 0.000000
113 -5.917249 0.789504 51.010830 1.570796 0.000000 0.000000
114 -14.160390 -12.485852 -1.637722 0.000000 0.000000 0.000000
115 0.000000 9.000000 0.000000 0.000000 0.000000 0.000000
116 0.000005 0.000022 -0.000003 0.000000 0.000000 0.000000
117 -0.000005 -0.000022 -9.999997 3.141592 -3.141592 3.141592
118 5.848145 0.743270 1.922454 0.000000 0.000000 0.000000
119 -11.985120 5.612720 43.582687 -2.553878 0.526744 -2.766586
120 10.060604 -0.000010 0.000016 1.589540 -0.178090 0.070970
121 0.000000 0.000000 0.000000 0.308551 -0.336207 -0.438291
122 0.000000 0.000000 0.000000 -2.619810 0.000000 0.000000
123 0.000000 0.000000 0.000000 0.000000 0.000000 0.000000
124 3.871192 5.149068 32.152493 1.570796 0.000000 0.000000
125 0.000000 0.000000 0.000000 0.000000 0.000000 0.000000
126 0.000000 0.000000 -10.000000 0.000000 0.000000 0.000000
127 0.420762 -4.137319 0.905741 0.000000 0.000000 0.000000
128 -3.106722 5.151699 31.966852 1.570796 0.000000 0.000000
129 0.000000 0.000000 0.000000 0.000000 0.000000 0.000000
130 0.000000 0.000000 -10.000000 0.000000 0.000000 0.000000
131 0.337305 2.655831 -0.365023 0.000000 0.000000 0.000000
time 6
0 0.000000 0.000000 0.000000 1.570796 0.000000 0.000000
1 0.382235 5.150383 32.059673 1.614112 -0.026598 -0.000377
2 0.000000 0.000000 0.000000 0.000000 0.000000 0.000000
3 3.490192 0.000000 0.000000 4.570180 -0.393645 -7.469963
4 17.312614 0.000000 0.000000 0.000000 0.000000 0.581570
5 16.130360 0.000000 0.000000 -0.411130 -0.103371 -1.369802
6 5.353091 0.000000 0.000000 0.018210 -0.026476 -0.316615
7 -3.490192 0.000000 0.000000 7.884715 -2.856497 -11.228844
8 17.312614 0.000000 0.000000 0.000000 0.000000 0.881000
9 16.130360 0.000000 0.000000 0.308536 0.217687 -1.739072
10 5.353091 0.000000 0.000000 -0.108343 0.021552 -0.421653
11 0.000000 3.980640 -0.064522 1.546729 -0.170395 1.549860
12 3.278966 0.000000 0.000000 -0.025291 0.007410 0.033117
13 3.543985 0.000000 0.000000 -0.022689 0.056514 0.083565
14 5.663627 0.000000 0.000000 -0.016355 0.072832 0.174670
15 4.682082 0.000000 0.000000 3.046548 -0.122010 0.787205
16 4.186316 0.000000 0.000000 0.061513 0.016576 0.943257
17 3.369210 1.594238 1.500000 -0.028768 -1.086990 -1.800717
18 4.179417 0.000000 0.000000 -1.834275 0.064115 -1.053408
19 10.735911 0.000000 0.000000 0.000000 0.000000 -0.859400
20 10.060622 -0.000017 -0.000028 1.000304 -0.185930 0.072993
21 2.888015 0.275892 -1.268036 0.456245 0.553647 0.150457
22 2.059619 0.000000 0.000000 -0.009100 -0.014494 -0.560690
23 1.413883 0.000000 0.000000 -0.034493 -0.066093 -0.481466
24 3.061202 0.168356 -0.385494 0.508434 0.196649 0.148701
25 2.508612 0.000000 0.000000 0.007855 0.012765 -0.551661
26 2.100857 0.000000 0.000000 -0.032504 -0.054996 -0.534173
27 3.430954 -0.121082 0.402565 0.531074 0.040957 0.136571
28 2.573873 0.000000 0.000000 -0.034598 -0.081423 -0.402342
29 2.362709 0.000000 0.000000 0.056123 0.073448 -0.653421
30 3.440184 -0.578705 1.137345 0.587081 -0.192757 0.216853
31 2.501091 0.000000 0.000000 -0.010757 -0.021484 -0.464276
32 2.170917 0.000000 0.000000 0.028566 0.062255 -0.430538
33 0.955230 -1.097456 0.270379 2.413279 -0.759981 -0.883250
34 1.963946 0.000000 0.000000 0.000000 -0.045527 -0.106288
35 1.868832 0.000000 0.000000 0.000000 0.019567 -0.562827
36 3.369210 1.594238 -1.500000 0.466953 1.084832 -1.296658
37 4.179417 0.000000 0.000000 1.770522 0.116454 -1.013736
38 10.735911 0.000000 0.000000 0.000000 0.000000 -0.849698
39 10.060604 -0.000010 0.000016 -0.810150 0.251531 -0.268317
40 2.888032 0.275104 1.268207 -0.489817 -0.676142 0.058655
41 2.059619 0.000000 0.000000 0.014073 0.022427 -0.560457
42 1.413883 0.000000 0.000000 0.034493 0.066093 -0.481466
43 3.061220 0.168117 0.385599 -0.518506 -0.174225 0.046249
44 2.508612 0.000000 0.000000 -0.003829 -0.006221 -0.551762
45 2.100857 0.000000 0.000000 0.032504 0.054996 -0.534173
46 3.430974 -0.120831 -0.402640 -0.516284 0.025867 -0.042281
47 2.573873 0.000000 0.000000 0.033895 0.079692 -0.402671
48 2.362709 0.000000 0.000000 -0.056123 -0.073448 -0.653421
49 3.440207 -0.577997 -1.137703 -0.554345 0.379772 0.069570
50 2.501091 0.000000 0.000000 0.008337 0.016641 -0.464460
51 2.170917 0.000000 0.000000 -0.028566 -0.062255 -0.430538
52 0.955254 -1.097296 -0.271062 -2.417156 0.764133 -0.888584
53 1.963946 0.000000 0.000000 0.000000 0.049433 -0.128248
54 1.868832 0.000000 0.000000 0.000000 -0.019567 -0.788824
55 3.547715 2.053023 2.506176 1.570796 0.000000 0.000000
56 11.868575 -0.144615 -0.682784 0.000000 0.365786 0.000000
57 0.032300 -4.377939 -4.331139 0.000000 0.000000 0.000000
58 -0.002340 -2.491005 4.197046 0.000000 0.000937 -0.001514
59 0.000000 0.000000 0.000000 0.000000 0.000000 0.000000
60 -0.421262 -2.516541 -1.807297 0.000000 0.000000 0.000000
61 0.480304 0.849103 9.288738 0.000000 0.000937 -0.001514
62 -0.056798 -0.000083 -2.394724 0.000000 0.000000 0.000000
63 0.002241 1.667430 -5.086772 0.000000 0.000000 0.000000
64 0.000000 0.000000 0.000000 0.000000 0.000000 0.000000
65 0.000000 0.000000 0.000000 0.000000 0.000000 0.000000
66 0.000000 0.000000 0.000000 0.000000 0.000000 0.000000
67 0.059042 -1.667439 7.481441 0.000000 0.000937 -0.001514
68 8.000000 0.000000 0.000000 0.000000 -0.365786 0.000000
69 -3.547715 2.053023 2.506176 1.570796 0.000000 0.000000
70 -5.336685 0.265847 -8.541546 0.085800 -0.344274 -0.014831
71 0.032300 -4.377939 -4.331139 0.000000 0.000000 0.000000
72 -0.063699 -2.571496 4.307481 -0.104772 0.001454 -0.001815
73 0.000000 0.000000 0.000000 0.000000 0.000000 0.000000
74 0.421262 -2.516541 -1.807297 0.000000 0.000000 0.000000
75 -0.480304 0.849103 9.288738 0.000000 0.000937 -0.001514
76 0.061285 0.000096 -2.394613 0.000000 0.000000 0.000000
77 0.002241 1.667430 -5.086772 0.000000 0.000000 0.000000
78 0.000000 0.000000 0.000000 0.000000 0.000000 0.000000
79 0.000000 0.000000 0.000000 -0.104771 0.000517 -0.000301
80 0.000000 0.000000 0.000000 0.000000 0.000000 0.000000
81 -0.057368 -1.416994 7.468351 -0.105853 -0.001122 0.061040
82 -8.000000 0.000000 0.000000 -0.085834 0.344266 -0.015026
83 0.000156 0.385903 39.987263 1.570796 0.000000 0.000000
84 0.382079 -7.927589 -4.764480 0.043305 -0.000377 0.026598
85 0.000000 3.980640 -0.064522 1.570796 0.083193 1.570796
86 0.000000 0.000000 0.000000 -0.025035 -0.023701 0.137222
87 0.000000 0.000000 0.000000 0.000000 0.000000 0.116415
88 3.256772 0.380860 0.000000 -0.025273 0.007473 0.152012
89 0.000000 0.000000 0.000000 0.000000 0.000000 -0.002481
90 3.543974 -0.008791 0.000000 -0.017207 0.058416 0.176464
91 0.000000 0.000000 0.000000 0.000000 0.000000 -0.095242
92 5.637959 -0.538598 0.000000 -0.016645 0.072766 0.075437
93 0.000000 0.000000 0.000000 0.000000 0.000000 0.003981
94 4.682045 0.018637 0.000000 -0.007129 -0.154352 0.173069
95 0.000000 0.000000 0.000000 3.141590 0.000000 0.612858
96 3.424439 2.408000 0.000000 0.062798 -0.010725 -0.424378
97 0.000000 0.000000 0.000000 3.141591 0.000000 0.094152
98 3.362837 1.607636 1.500000 0.057947 -1.099718 -1.791586
99 0.000000 0.000000 0.000000 -0.091310 0.012562 -0.003129
100 3.362837 1.607636 -1.500000 -0.136793 1.099718 -1.791586
101 0.000000 0.000000 0.000000 0.159503 0.005036 0.228254
102 4.476193 -0.173285 51.246494 1.570796 0.000000 0.000000
103 14.042627 -12.617314 -1.059495 0.000000 0.000000 0.000000
104 0.000000 9.000000 0.000000 0.000000 0.000000 0.000000
105 0.000000 0.000000 0.000000 0.000000 0.000000 0.000000
106 0.000000 0.000000 -10.000000 0.000000 0.000000 0.000000
107 -5.842497 0.477908 1.898344 0.000000 0.000000 0.000000
108 10.476091 4.353079 43.580135 -0.638126 0.514513 -0.406989
109 10.060622 -0.000017 -0.000028 1.552053 0.178087 0.070973
110 0.000000 0.000000 0.000000 -0.030200 -0.004688 0.363994
111 0.000000 0.000000 0.000000 -0.522403 0.000000 0.000000
112 0.000000 0.000000 0.000000 0.000000 0.000000 0.000000
113 -5.917249 0.789504 51.010830 1.570796 0.000000 0.000000
114 -14.160390 -12.485852 -1.637722 0.000000 0.000000 0.000000
115 0.000000 9.000000 0.000000 0.000000 0.000000 0.000000
116 0.000005 0.000022 -0.000003 0.000000 0.000000 0.000000
117 -0.000005 -0.000022 -9.999997 3.141592 -3.141592 3.141592
118 5.848145 0.743270 1.922454 0.000000 0.000000 0.000000
119 -11.985120 5.612720 43.582687 -2.553878 0.526744 -2.766586
120 10.060604 -0.000010 0.000016 1.589540 -0.178090 0.070970
121 0.000000 0.000000 0.000000 0.308551 -0.336207 -0.438291
122 0.000000 0.000000 0.000000 -2.619810 0.000000 0.000000
123 0.000000 0.000000 0.000000 0.000000 0.000000 0.000000
124 3.871192 5.149068 32.152493 1.570796 0.000000 0.000000
125 0.000000 0.000000 0.000000 0.000000 0.000000 0.000000
126 0.000000 0.000000 -10.000000 0.000000 0.000000 0.000000
127 0.420762 -4.137319 0.905741 0.000000 0.000000 0.000000
128 -3.106722 5.151699 31.966852 1.570796 0.000000 0.000000
129 0.000000 0.000000 0.000000 0.000000 0.000000 0.000000
130 0.000000 0.000000 -10.000000 0.000000 0.000000 0.000000
131 0.337305 2.655831 -0.365023 0.000000 0.000000 0.000000
time 7
0 0.000000 0.000000 0.000000 1.570796 0.000000 0.000000
1 0.382235 5.150383 32.059673 1.614112 -0.026598 -0.000377
2 0.000000 0.000000 0.000000 0.000000 0.000000 0.000000
3 3.490192 0.000000 0.000000 4.570180 -0.393645 -7.469963
4 17.312614 0.000000 0.000000 0.000000 0.000000 0.581570
5 16.130360 0.000000 0.000000 -0.411130 -0.103371 -1.369802
6 5.353091 0.000000 0.000000 0.018210 -0.026476 -0.316615
7 -3.490192 0.000000 0.000000 7.884715 -2.856497 -11.228844
8 17.312614 0.000000 0.000000 0.000000 0.000000 0.881000
9 16.130360 0.000000 0.000000 0.308536 0.217687 -1.739072
10 5.353091 0.000000 0.000000 -0.108343 0.021552 -0.421653
11 0.000000 3.980640 -0.064522 1.546729 -0.170395 1.549860
12 3.278966 0.000000 0.000000 -0.025291 0.007410 0.033117
13 3.543985 0.000000 0.000000 -0.022689 0.056514 0.083565
14 5.663627 0.000000 0.000000 -0.016355 0.072832 0.174670
15 4.682082 0.000000 0.000000 3.046548 -0.122010 0.787205
16 4.186316 0.000000 0.000000 0.061513 0.016576 0.943257
17 3.369210 1.594238 1.500000 -0.028768 -1.086990 -1.800717
18 4.179417 0.000000 0.000000 -1.834275 0.064115 -1.053408
19 10.735911 0.000000 0.000000 0.000000 0.000000 -0.859400
20 10.060622 -0.000017 -0.000028 1.000304 -0.185930 0.072993
21 2.888015 0.275892 -1.268036 0.456245 0.553647 0.150457
22 2.059619 0.000000 0.000000 -0.009100 -0.014494 -0.560690
23 1.413883 0.000000 0.000000 -0.034493 -0.066093 -0.481466
24 3.061202 0.168356 -0.385494 0.508434 0.196649 0.148701
25 2.508612 0.000000 0.000000 0.007855 0.012765 -0.551661
26 2.100857 0.000000 0.000000 -0.032504 -0.054996 -0.534173
27 3.430954 -0.121082 0.402565 0.531074 0.040957 0.136571
28 2.573873 0.000000 0.000000 -0.034598 -0.081423 -0.402342
29 2.362709 0.000000 0.000000 0.056123 0.073448 -0.653421
30 3.440184 -0.578705 1.137345 0.587081 -0.192757 0.216853
31 2.501091 0.000000 0.000000 -0.010757 -0.021484 -0.464276
32 2.170917 0.000000 0.000000 0.028566 0.062255 -0.430538
33 0.955230 -1.097456 0.270379 2.413279 -0.759981 -0.883250
34 1.963946 0.000000 0.000000 0.000000 -0.045527 -0.106288
35 1.868832 0.000000 0.000000 0.000000 0.019567 -0.562827
36 3.369210 1.594238 -1.500000 0.466953 1.084832 -1.296658
37 4.179417 0.000000 0.000000 1.770522 0.116454 -1.013736
38 10.735911 0.000000 0.000000 0.000000 0.000000 -0.849698
39 10.060604 -0.000010 0.000016 -0.810150 0.251531 -0.268317
40 2.888032 0.275104 1.268207 -0.489817 -0.676142 0.058655
41 2.059619 0.000000 0.000000 0.014073 0.022427 -0.560457
42 1.413883 0.000000 0.000000 0.034493 0.066093 -0.481466
43 3.061220 0.168117 0.385599 -0.518506 -0.174225 0.046249
44 2.508612 0.000000 0.000000 -0.003829 -0.006221 -0.551762
45 2.100857 0.000000 0.000000 0.032504 0.054996 -0.534173
46 3.430974 -0.120831 -0.402640 -0.516284 0.025867 -0.042281
47 2.573873 0.000000 0.000000 0.033895 0.079692 -0.402671
48 2.362709 0.000000 0.000000 -0.056123 -0.073448 -0.653421
49 3.440207 -0.577997 -1.137703 -0.554345 0.379772 0.069570
50 2.501091 0.000000 0.000000 0.008337 0.016641 -0.464460
51 2.170917 0.000000 0.000000 -0.028566 -0.062255 -0.430538
52 0.955254 -1.097296 -0.271062 -2.417156 0.764133 -0.888584
53 1.963946 0.000000 0.000000 0.000000 0.049433 -0.128248
54 1.868832 0.000000 0.000000 0.000000 -0.019567 -0.788824
55 3.547715 2.053023 2.506176 1.570796 0.000000 0.000000
56 11.868575 -0.144615 -0.682784 0.000000 0.365786 0.000000
57 0.032300 -4.377939 -4.331139 0.000000 0.000000 0.000000
58 -0.002340 -2.491005 4.197046 0.000000 0.000937 -0.001514
59 0.000000 0.000000 0.000000 0.000000 0.000000 0.000000
60 -0.421262 -2.516541 -1.807297 0.000000 0.000000 0.000000
61 0.480304 0.849103 9.288738 0.000000 0.000937 -0.001514
62 -0.056798 -0.000083 -2.394724 0.000000 0.000000 0.000000
63 0.002241 1.667430 -5.086772 0.000000 0.000000 0.000000
64 0.000000 0.000000 0.000000 0.000000 0.000000 0.000000
65 0.000000 0.000000 0.000000 0.000000 0.000000 0.000000
66 0.000000 0.000000 0.000000 0.000000 0.000000 0.000000
67 0.059042 -1.667439 7.481441 0.000000 0.000937 -0.001514
68 8.000000 0.000000 0.000000 0.000000 -0.365786 0.000000
69 -3.547715 2.053023 2.506176 1.570796 0.000000 0.000000
70 -5.336685 0.265847 -8.541546 0.085800 -0.344274 -0.014831
71 0.032300 -4.377939 -4.331139 0.000000 0.000000 0.000000
72 -0.063699 -2.571496 4.307481 -0.104772 0.001454 -0.001815
73 0.000000 0.000000 0.000000 0.000000 0.000000 0.000000
74 0.421262 -2.516541 -1.807297 0.000000 0.000000 0.000000
75 -0.480304 0.849103 9.288738 0.000000 0.000937 -0.001514
76 0.061285 0.000096 -2.394613 0.000000 0.000000 0.000000
77 0.002241 1.667430 -5.086772 0.000000 0.000000 0.000000
78 0.000000 0.000000 0.000000 0.000000 0.000000 0.000000
79 0.000000 0.000000 0.000000 -0.104771 0.000517 -0.000301
80 0.000000 0.000000 0.000000 0.000000 0.000000 0.000000
81 -0.057368 -1.416994 7.468351 -0.105853 -0.001122 0.061040
82 -8.000000 0.000000 0.000000 -0.085834 0.344266 -0.015026
83 0.000156 0.385903 39.987263 1.570796 0.000000 0.000000
84 0.382079 -7.927589 -4.764480 0.043305 -0.000377 0.026598
85 0.000000 3.980640 -0.064522 1.570796 0.083193 1.570796
86 0.000000 0.000000 0.000000 -0.025035 -0.023701 0.137222
87 0.000000 0.000000 0.000000 0.000000 0.000000 0.116415
88 3.256772 0.380860 0.000000 -0.025273 0.007473 0.152012
89 0.000000 0.000000 0.000000 0.000000 0.000000 -0.002481
90 3.543974 -0.008791 0.000000 -0.017207 0.058416 0.176464
91 0.000000 0.000000 0.000000 0.000000 0.000000 -0.095242
92 5.637959 -0.538598 0.000000 -0.016645 0.072766 0.075437
93 0.000000 0.000000 0.000000 0.000000 0.000000 0.003981
94 4.682045 0.018637 0.000000 -0.007129 -0.154352 0.173069
95 0.000000 0.000000 0.000000 3.141590 0.000000 0.612858
96 3.424439 2.408000 0.000000 0.062798 -0.010725 -0.424378
97 0.000000 0.000000 0.000000 3.141591 0.000000 0.094152
98 3.362837 1.607636 1.500000 0.057947 -1.099718 -1.791586
99 0.000000 0.000000 0.000000 -0.091310 0.012562 -0.003129
100 3.362837 1.607636 -1.500000 -0.136793 1.099718 -1.791586
101 0.000000 0.000000 0.000000 0.159503 0.005036 0.228254
102 4.476193 -0.173285 51.246494 1.570796 0.000000 0.000000
103 14.042627 -12.617314 -1.059495 0.000000 0.000000 0.000000
104 0.000000 9.000000 0.000000 0.000000 0.000000 0.000000
105 0.000000 0.000000 0.000000 0.000000 0.000000 0.000000
106 0.000000 0.000000 -10.000000 0.000000 0.000000 0.000000
107 -5.842497 0.477908 1.898344 0.000000 0.000000 0.000000
108 10.476091 4.353079 43.580135 -0.638126 0.514513 -0.406989
109 10.060622 -0.000017 -0.000028 1.552053 0.178087 0.070973
110 0.000000 0.000000 0.000000 -0.030200 -0.004688 0.363994
111 0.000000 0.000000 0.000000 -0.522403 0.000000 0.000000
112 0.000000 0.000000 0.000000 0.000000 0.000000 0.000000
113 -5.917249 0.789504 51.010830 1.570796 0.000000 0.000000
114 -14.160390 -12.485852 -1.637722 0.000000 0.000000 0.000000
115 0.000000 9.000000 0.000000 0.000000 0.000000 0.000000
116 0.000005 0.000022 -0.000003 0.000000 0.000000 0.000000
117 -0.000005 -0.000022 -9.999997 3.141592 -3.141592 3.141592
118 5.848145 0.743270 1.922454 0.000000 0.000000 0.000000
119 -11.985120 5.612720 43.582687 -2.553878 0.526744 -2.766586
120 10.060604 -0.000010 0.000016 1.589540 -0.178090 0.070970
121 0.000000 0.000000 0.000000 0.308551 -0.336207 -0.438291
122 0.000000 0.000000 0.000000 -2.619810 0.000000 0.000000
123 0.000000 0.000000 0.000000 0.000000 0.000000 0.000000
124 3.871192 5.149068 32.152493 1.570796 0.000000 0.000000
125 0.000000 0.000000 0.000000 0.000000 0.000000 0.000000
126 0.000000 0.000000 -10.000000 0.000000 0.000000 0.000000
127 0.420762 -4.137319 0.905741 0.000000 0.000000 0.000000
128 -3.106722 5.151699 31.966852 1.570796 0.000000 0.000000
129 0.000000 0.000000 0.000000 0.000000 0.000000 0.000000
130 0.000000 0.000000 -10.000000 0.000000 0.000000 0.000000
131 0.337305 2.655831 -0.365023 0.000000 0.000000 0.000000
time 8
0 0.000000 0.000000 0.000000 1.570796 0.000000 0.000000
1 0.382235 5.150383 32.059673 1.614112 -0.026598 -0.000377
2 0.000000 0.000000 0.000000 0.000000 0.000000 0.000000
3 3.490192 0.000000 0.000000 4.570180 -0.393645 -7.469963
4 17.312614 0.000000 0.000000 0.000000 0.000000 0.581570
5 16.130360 0.000000 0.000000 -0.411130 -0.103371 -1.369802
6 5.353091 0.000000 0.000000 0.018210 -0.026476 -0.316615
7 -3.490192 0.000000 0.000000 7.884715 -2.856497 -11.228844
8 17.312614 0.000000 0.000000 0.000000 0.000000 0.881000
9 16.130360 0.000000 0.000000 0.308536 0.217687 -1.739072
10 5.353091 0.000000 0.000000 -0.108343 0.021552 -0.421653
11 0.000000 3.980640 -0.064522 1.546729 -0.170395 1.549860
12 3.278966 0.000000 0.000000 -0.025291 0.007410 0.033117
13 3.543985 0.000000 0.000000 -0.022689 0.056514 0.083565
14 5.663627 0.000000 0.000000 -0.016355 0.072832 0.174670
15 4.682082 0.000000 0.000000 3.046548 -0.122010 0.787205
16 4.186316 0.000000 0.000000 0.061513 0.016576 0.943257
17 3.369210 1.594238 1.500000 -0.028768 -1.086990 -1.800717
18 4.179417 0.000000 0.000000 -1.834275 0.064115 -1.053408
19 10.735911 0.000000 0.000000 0.000000 0.000000 -0.859400
20 10.060622 -0.000017 -0.000028 1.000304 -0.185930 0.072993
21 2.888015 0.275892 -1.268036 0.456245 0.553647 0.150457
22 2.059619 0.000000 0.000000 -0.009100 -0.014494 -0.560690
23 1.413883 0.000000 0.000000 -0.034493 -0.066093 -0.481466
24 3.061202 0.168356 -0.385494 0.508434 0.196649 0.148701
25 2.508612 0.000000 0.000000 0.007855 0.012765 -0.551661
26 2.100857 0.000000 0.000000 -0.032504 -0.054996 -0.534173
27 3.430954 -0.121082 0.402565 0.531074 0.040957 0.136571
28 2.573873 0.000000 0.000000 -0.034598 -0.081423 -0.402342
29 2.362709 0.000000 0.000000 0.056123 0.073448 -0.653421
30 3.440184 -0.578705 1.137345 0.587081 -0.192757 0.216853
31 2.501091 0.000000 0.000000 -0.010757 -0.021484 -0.464276
32 2.170917 0.000000 0.000000 0.028566 0.062255 -0.430538
33 0.955230 -1.097456 0.270379 2.413279 -0.759981 -0.883250
34 1.963946 0.000000 0.000000 0.000000 -0.045527 -0.106288
35 1.868832 0.000000 0.000000 0.000000 0.019567 -0.562827
36 3.369210 1.594238 -1.500000 0.466953 1.084832 -1.296658
37 4.179417 0.000000 0.000000 1.770522 0.116454 -1.013736
38 10.735911 0.000000 0.000000 0.000000 0.000000 -0.849698
39 10.060604 -0.000010 0.000016 -0.810150 0.251531 -0.268317
40 2.888032 0.275104 1.268207 -0.489817 -0.676142 0.058655
41 2.059619 0.000000 0.000000 0.014073 0.022427 -0.560457
42 1.413883 0.000000 0.000000 0.034493 0.066093 -0.481466
43 3.061220 0.168117 0.385599 -0.518506 -0.174225 0.046249
44 2.508612 0.000000 0.000000 -0.003829 -0.006221 -0.551762
45 2.100857 0.000000 0.000000 0.032504 0.054996 -0.534173
46 3.430974 -0.120831 -0.402640 -0.516284 0.025867 -0.042281
47 2.573873 0.000000 0.000000 0.033895 0.079692 -0.402671
48 2.362709 0.000000 0.000000 -0.056123 -0.073448 -0.653421
49 3.440207 -0.577997 -1.137703 -0.554345 0.379772 0.069570
50 2.501091 0.000000 0.000000 0.008337 0.016641 -0.464460
51 2.170917 0.000000 0.000000 -0.028566 -0.062255 -0.430538
52 0.955254 -1.097296 -0.271062 -2.417156 0.764133 -0.888584
53 1.963946 0.000000 0.000000 0.000000 0.049433 -0.128248
54 1.868832 0.000000 0.000000 0.000000 -0.019567 -0.788824
55 3.547715 2.053023 2.506176 1.570796 0.000000 0.000000
56 11.868575 -0.144615 -0.682784 0.000000 0.365786 0.000000
57 0.032300 -4.377939 -4.331139 0.000000 0.000000 0.000000
58 -0.002340 -2.491005 4.197046 0.000000 0.000937 -0.001514
59 0.000000 0.000000 0.000000 0.000000 0.000000 0.000000
60 -0.421262 -2.516541 -1.807297 0.000000 0.000000 0.000000
61 0.480304 0.849103 9.288738 0.000000 0.000937 -0.001514
62 -0.056798 -0.000083 -2.394724 0.000000 0.000000 0.000000
63 0.002241 1.667430 -5.086772 0.000000 0.000000 0.000000
64 0.000000 0.000000 0.000000 0.000000 0.000000 0.000000
65 0.000000 0.000000 0.000000 0.000000 0.000000 0.000000
66 0.000000 0.000000 0.000000 0.000000 0.000000 0.000000
67 0.059042 -1.667439 7.481441 0.000000 0.000937 -0.001514
68 8.000000 0.000000 0.000000 0.000000 -0.365786 0.000000
69 -3.547715 2.053023 2.506176 1.570796 0.000000 0.000000
70 -5.336685 0.265847 -8.541546 0.085800 -0.344274 -0.014831
71 0.032300 -4.377939 -4.331139 0.000000 0.000000 0.000000
72 -0.063699 -2.571496 4.307481 -0.104772 0.001454 -0.001815
73 0.000000 0.000000 0.000000 0.000000 0.000000 0.000000
74 0.421262 -2.516541 -1.807297 0.000000 0.000000 0.000000
75 -0.480304 0.849103 9.288738 0.000000 0.000937 -0.001514
76 0.061285 0.000096 -2.394613 0.000000 0.000000 0.000000
77 0.002241 1.667430 -5.086772 0.000000 0.000000 0.000000
78 0.000000 0.000000 0.000000 0.000000 0.000000 0.000000
79 0.000000 0.000000 0.000000 -0.104771 0.000517 -0.000301
80 0.000000 0.000000 0.000000 0.000000 0.000000 0.000000
81 -0.057368 -1.416994 7.468351 -0.105853 -0.001122 0.061040
82 -8.000000 0.000000 0.000000 -0.085834 0.344266 -0.015026
83 0.000156 0.385903 39.987263 1.570796 0.000000 0.000000
84 0.382079 -7.927589 -4.764480 0.043305 -0.000377 0.026598
85 0.000000 3.980640 -0.064522 1.570796 0.083193 1.570796
86 0.000000 0.000000 0.000000 -0.025035 -0.023701 0.137222
87 0.000000 0.000000 0.000000 0.000000 0.000000 0.116415
88 3.256772 0.380860 0.000000 -0.025273 0.007473 0.152012
89 0.000000 0.000000 0.000000 0.000000 0.000000 -0.002481
90 3.543974 -0.008791 0.000000 -0.017207 0.058416 0.176464
91 0.000000 0.000000 0.000000 0.000000 0.000000 -0.095242
92 5.637959 -0.538598 0.000000 -0.016645 0.072766 0.075437
93 0.000000 0.000000 0.000000 0.000000 0.000000 0.003981
94 4.682045 0.018637 0.000000 -0.007129 -0.154352 0.173069
95 0.000000 0.000000 0.000000 3.141590 0.000000 0.612858
96 3.424439 2.408000 0.000000 0.062798 -0.010725 -0.424378
97 0.000000 0.000000 0.000000 3.141591 0.000000 0.094152
98 3.362837 1.607636 1.500000 0.057947 -1.099718 -1.791586
99 0.000000 0.000000 0.000000 -0.091310 0.012562 -0.003129
100 3.362837 1.607636 -1.500000 -0.136793 1.099718 -1.791586
101 0.000000 0.000000 0.000000 0.159503 0.005036 0.228254
102 4.476193 -0.173285 51.246494 1.570796 0.000000 0.000000
103 14.042627 -12.617314 -1.059495 0.000000 0.000000 0.000000
104 0.000000 9.000000 0.000000 0.000000 0.000000 0.000000
105 0.000000 0.000000 0.000000 0.000000 0.000000 0.000000
106 0.000000 0.000000 -10.000000 0.000000 0.000000 0.000000
107 -5.842497 0.477908 1.898344 0.000000 0.000000 0.000000
108 10.476091 4.353079 43.580135 -0.638126 0.514513 -0.406989
109 10.060622 -0.000017 -0.000028 1.552053 0.178087 0.070973
110 0.000000 0.000000 0.000000 -0.030200 -0.004688 0.363994
111 0.000000 0.000000 0.000000 -0.522403 0.000000 0.000000
112 0.000000 0.000000 0.000000 0.000000 0.000000 0.000000
113 -5.917249 0.789504 51.010830 1.570796 0.000000 0.000000
114 -14.160390 -12.485852 -1.637722 0.000000 0.000000 0.000000
115 0.000000 9.000000 0.000000 0.000000 0.000000 0.000000
116 0.000005 0.000022 -0.000003 0.000000 0.000000 0.000000
117 -0.000005 -0.000022 -9.999997 3.141592 -3.141592 3.141592
118 5.848145 0.743270 1.922454 0.000000 0.000000 0.000000
119 -11.985120 5.612720 43.582687 -2.553878 0.526744 -2.766586
120 10.060604 -0.000010 0.000016 1.589540 -0.178090 0.070970
121 0.000000 0.000000 0.000000 0.308551 -0.336207 -0.438291
122 0.000000 0.000000 0.000000 -2.619810 0.000000 0.000000
123 0.000000 0.000000 0.000000 0.000000 0.000000 0.000000
124 3.871192 5.149068 32.152493 1.570796 0.000000 0.000000
125 0.000000 0.000000 0.000000 0.000000 0.000000 0.000000
126 0.000000 0.000000 -10.000000 0.000000 0.000000 0.000000
127 0.420762 -4.137319 0.905741 0.000000 0.000000 0.000000
128 -3.106722 5.151699 31.966852 1.570796 0.000000 0.000000
129 0.000000 0.000000 0.000000 0.000000 0.000000 0.000000
130 0.000000 0.000000 -10.000000 0.000000 0.000000 0.000000
131 0.337305 2.655831 -0.365023 0.000000 0.000000 0.000000
time 9
0 0.000000 0.000000 0.000000 1.570796 0.000000 0.000000
1 0.382235 5.150383 32.059673 1.614112 -0.026598 -0.000377
2 0.000000 0.000000 0.000000 0.000000 0.000000 0.000000
3 3.490192 0.000000 0.000000 4.570180 -0.393645 -7.469963
4 17.312614 0.000000 0.000000 0.000000 0.000000 0.581570
5 16.130360 0.000000 0.000000 -0.411130 -0.103371 -1.369802
6 5.353091 0.000000 0.000000 0.018210 -0.026476 -0.316615
7 -3.490192 0.000000 0.000000 7.884715 -2.856497 -11.228844
8 17.312614 0.000000 0.000000 0.000000 0.000000 0.881000
9 16.130360 0.000000 0.000000 0.308536 0.217687 -1.739072
10 5.353091 0.000000 0.000000 -0.108343 0.021552 -0.421653
11 0.000000 3.980640 -0.064522 1.546729 -0.170395 1.549860
12 3.278966 0.000000 0.000000 -0.025291 0.007410 0.033117
13 3.543985 0.000000 0.000000 -0.022689 0.056514 0.083565
14 5.663627 0.000000 0.000000 -0.016355 0.072832 0.174670
15 4.682082 0.000000 0.000000 3.046548 -0.122010 0.787205
16 4.186316 0.000000 0.000000 0.061513 0.016576 0.943257
17 3.369210 1.594238 1.500000 -0.028768 -1.086990 -1.800717
18 4.179417 0.000000 0.000000 -1.834275 0.064115 -1.053408
19 10.735911 0.000000 0.000000 0.000000 0.000000 -0.859400
20 10.060622 -0.000017 -0.000028 1.000304 -0.185930 0.072993
21 2.888015 0.275892 -1.268036 0.456245 0.553647 0.150457
22 2.059619 0.000000 0.000000 -0.009100 -0.014494 -0.560690
23 1.413883 0.000000 0.000000 -0.034493 -0.066093 -0.481466
24 3.061202 0.168356 -0.385494 0.508434 0.196649 0.148701
25 2.508612 0.000000 0.000000 0.007855 0.012765 -0.551661
26 2.100857 0.000000 0.000000 -0.032504 -0.054996 -0.534173
27 3.430954 -0.121082 0.402565 0.531074 0.040957 0.136571
28 2.573873 0.000000 0.000000 -0.034598 -0.081423 -0.402342
29 2.362709 0.000000 0.000000 0.056123 0.073448 -0.653421
30 3.440184 -0.578705 1.137345 0.587081 -0.192757 0.216853
31 2.501091 0.000000 0.000000 -0.010757 -0.021484 -0.464276
32 2.170917 0.000000 0.000000 0.028566 0.062255 -0.430538
33 0.955230 -1.097456 0.270379 2.413279 -0.759981 -0.883250
34 1.963946 0.000000 0.000000 0.000000 -0.045527 -0.106288
35 1.868832 0.000000 0.000000 0.000000 0.019567 -0.562827
36 3.369210 1.594238 -1.500000 0.466953 1.084832 -1.296658
37 4.179417 0.000000 0.000000 1.770522 0.116454 -1.013736
38 10.735911 0.000000 0.000000 0.000000 0.000000 -0.849698
39 10.060604 -0.000010 0.000016 -0.810150 0.251531 -0.268317
40 2.888032 0.275104 1.268207 -0.489817 -0.676142 0.058655
41 2.059619 0.000000 0.000000 0.014073 0.022427 -0.560457
42 1.413883 0.000000 0.000000 0.034493 0.066093 -0.481466
43 3.061220 0.168117 0.385599 -0.518506 -0.174225 0.046249
44 2.508612 0.000000 0.000000 -0.003829 -0.006221 -0.551762
45 2.100857 0.000000 0.000000 0.032504 0.054996 -0.534173
46 3.430974 -0.120831 -0.402640 -0.516284 0.025867 -0.042281
47 2.573873 0.000000 0.000000 0.033895 0.079692 -0.402671
48 2.362709 0.000000 0.000000 -0.056123 -0.073448 -0.653421
49 3.440207 -0.577997 -1.137703 -0.554345 0.379772 0.069570
50 2.501091 0.000000 0.000000 0.008337 0.016641 -0.464460
51 2.170917 0.000000 0.000000 -0.028566 -0.062255 -0.430538
52 0.955254 -1.097296 -0.271062 -2.417156 0.764133 -0.888584
53 1.963946 0.000000 0.000000 0.000000 0.049433 -0.128248
54 1.868832 0.000000 0.000000 0.000000 -0.019567 -0.788824
55 3.547715 2.053023 2.506176 1.570796 0.000000 0.000000
56 11.868575 -0.144615 -0.682784 0.000000 0.365786 0.000000
57 0.032300 -4.377939 -4.331139 0.000000 0.000000 0.000000
58 -0.002340 -2.491005 4.197046 0.000000 0.000937 -0.001514
59 0.000000 0.000000 0.000000 0.000000 0.000000 0.000000
60 -0.421262 -2.516541 -1.807297 0.000000 0.000000 0.000000
61 0.480304 0.849103 9.288738 0.000000 0.000937 -0.001514
62 -0.056798 -0.000083 -2.394724 0.000000 0.000000 0.000000
63 0.002241 1.667430 -5.086772 0.000000 0.000000 0.000000
64 0.000000 0.000000 0.000000 0.000000 0.000000 0.000000
65 0.000000 0.000000 0.000000 0.000000 0.000000 0.000000
66 0.000000 0.000000 0.000000 0.000000 0.000000 0.000000
67 0.059042 -1.667439 7.481441 0.000000 0.000937 -0.001514
68 8.000000 0.000000 0.000000 0.000000 -0.365786 0.000000
69 -3.547715 2.053023 2.506176 1.570796 0.000000 0.000000
70 -5.336685 0.265847 -8.541546 0.085800 -0.344274 -0.014831
71 0.032300 -4.377939 -4.331139 0.000000 0.000000 0.000000
72 -0.063699 -2.571496 4.307481 -0.104772 0.001454 -0.001815
73 0.000000 0.000000 0.000000 0.000000 0.000000 0.000000
74 0.421262 -2.516541 -1.807297 0.000000 0.000000 0.000000
75 -0.480304 0.849103 9.288738 0.000000 0.000937 -0.001514
76 0.061285 0.000096 -2.394613 0.000000 0.000000 0.000000
77 0.002241 1.667430 -5.086772 0.000000 0.000000 0.000000
78 0.000000 0.000000 0.000000 0.000000 0.000000 0.000000
79 0.000000 0.000000 0.000000 -0.104771 0.000517 -0.000301
80 0.000000 0.000000 0.000000 0.000000 0.000000 0.000000
81 -0.057368 -1.416994 7.468351 -0.105853 -0.001122 0.061040
82 -8.000000 0.000000 0.000000 -0.085834 0.344266 -0.015026
83 0.000156 0.385903 39.987263 1.570796 0.000000 0.000000
84 0.382079 -7.927589 -4.764480 0.043305 -0.000377 0.026598
85 0.000000 3.980640 -0.064522 1.570796 0.083193 1.570796
86 0.000000 0.000000 0.000000 -0.025035 -0.023701 0.137222
87 0.000000 0.000000 0.000000 0.000000 0.000000 0.116415
88 3.256772 0.380860 0.000000 -0.025273 0.007473 0.152012
89 0.000000 0.000000 0.000000 0.000000 0.000000 -0.002481
90 3.543974 -0.008791 0.000000 -0.017207 0.058416 0.176464
91 0.000000 0.000000 0.000000 0.000000 0.000000 -0.095242
92 5.637959 -0.538598 0.000000 -0.016645 0.072766 0.075437
93 0.000000 0.000000 0.000000 0.000000 0.000000 0.003981
94 4.682045 0.018637 0.000000 -0.007129 -0.154352 0.173069
95 0.000000 0.000000 0.000000 3.141590 0.000000 0.612858
96 3.424439 2.408000 0.000000 0.062798 -0.010725 -0.424378
97 0.000000 0.000000 0.000000 3.141591 0.000000 0.094152
98 3.362837 1.607636 1.500000 0.057947 -1.099718 -1.791586
99 0.000000 0.000000 0.000000 -0.091310 0.012562 -0.003129
100 3.362837 1.607636 -1.500000 -0.136793 1.099718 -1.791586
101 0.000000 0.000000 0.000000 0.159503 0.005036 0.228254
102 4.476193 -0.173285 51.246494 1.570796 0.000000 0.000000
103 14.042627 -12.617314 -1.059495 0.000000 0.000000 0.000000
104 0.000000 9.000000 0.000000 0.000000 0.000000 0.000000
105 0.000000 0.000000 0.000000 0.000000 0.000000 0.000000
106 0.000000 0.000000 -10.000000 0.000000 0.000000 0.000000
107 -5.842497 0.477908 1.898344 0.000000 0.000000 0.000000
108 10.476091 4.353079 43.580135 -0.638126 0.514513 -0.406989
109 10.060622 -0.000017 -0.000028 1.552053 0.178087 0.070973
110 0.000000 0.000000 0.000000 -0.030200 -0.004688 0.363994
111 0.000000 0.000000 0.000000 -0.522403 0.000000 0.000000
112 0.000000 0.000000 0.000000 0.000000 0.000000 0.000000
113 -5.917249 0.789504 51.010830 1.570796 0.000000 0.000000
114 -14.160390 -12.485852 -1.637722 0.000000 0.000000 0.000000
115 0.000000 9.000000 0.000000 0.000000 0.000000 0.000000
116 0.000005 0.000022 -0.000003 0.000000 0.000000 0.000000
117 -0.000005 -0.000022 -9.999997 3.141592 -3.141592 3.141592
118 5.848145 0.743270 1.922454 0.000000 0.000000 0.000000
119 -11.985120 5.612720 43.582687 -2.553878 0.526744 -2.766586
120 10.060604 -0.000010 0.000016 1.589540 -0.178090 0.070970
121 0.000000 0.000000 0.000000 0.308551 -0.336207 -0.438291
122 0.000000 0.000000 0.000000 -2.619810 0.000000 0.000000
123 0.000000 0.000000 0.000000 0.000000 0.000000 0.000000
124 3.871192 5.149068 32.152493 1.570796 0.000000 0.000000
125 0.000000 0.000000 0.000000 0.000000 0.000000 0.000000
126 0.000000 0.000000 -10.000000 0.000000 0.000000 0.000000
127 0.420762 -4.137319 0.905741 0.000000 0.000000 0.000000
128 -3.106722 5.151699 31.966852 1.570796 0.000000 0.000000
129 0.000000 0.000000 0.000000 0.000000 0.000000 0.000000
130 0.000000 0.000000 -10.000000 0.000000 0.000000 0.000000
131 0.337305 2.655831 -0.365023 0.000000 0.000000 0.000000
time 10
0 0.000000 0.000000 0.000000 1.570796 0.000000 0.000000
1 0.382235 5.150383 32.059673 1.614112 -0.026598 -0.000377
2 0.000000 0.000000 0.000000 0.000000 0.000000 0.000000
3 3.490192 0.000000 0.000000 4.570180 -0.393645 -7.469963
4 17.312614 0.000000 0.000000 0.000000 0.000000 0.581570
5 16.130360 0.000000 0.000000 -0.411130 -0.103371 -1.369802
6 5.353091 0.000000 0.000000 0.018210 -0.026476 -0.316615
7 -3.490192 0.000000 0.000000 7.884715 -2.856497 -11.228844
8 17.312614 0.000000 0.000000 0.000000 0.000000 0.881000
9 16.130360 0.000000 0.000000 0.308536 0.217687 -1.739072
10 5.353091 0.000000 0.000000 -0.108343 0.021552 -0.421653
11 0.000000 3.980640 -0.064522 1.546729 -0.170395 1.549860
12 3.278966 0.000000 0.000000 -0.025291 0.007410 0.033117
13 3.543985 0.000000 0.000000 -0.022689 0.056514 0.083565
14 5.663627 0.000000 0.000000 -0.016355 0.072832 0.174670
15 4.682082 0.000000 0.000000 3.046548 -0.122010 0.787205
16 4.186316 0.000000 0.000000 0.061513 0.016576 0.943257
17 3.369210 1.594238 1.500000 -0.028768 -1.086990 -1.800717
18 4.179417 0.000000 0.000000 -1.834275 0.064115 -1.053408
19 10.735911 0.000000 0.000000 0.000000 0.000000 -0.859400
20 10.060622 -0.000017 -0.000028 1.000304 -0.185930 0.072993
21 2.888015 0.275892 -1.268036 0.456245 0.553647 0.150457
22 2.059619 0.000000 0.000000 -0.009100 -0.014494 -0.560690
23 1.413883 0.000000 0.000000 -0.034493 -0.066093 -0.481466
24 3.061202 0.168356 -0.385494 0.508434 0.196649 0.148701
25 2.508612 0.000000 0.000000 0.007855 0.012765 -0.551661
26 2.100857 0.000000 0.000000 -0.032504 -0.054996 -0.534173
27 3.430954 -0.121082 0.402565 0.531074 0.040957 0.136571
28 2.573873 0.000000 0.000000 -0.034598 -0.081423 -0.402342
29 2.362709 0.000000 0.000000 0.056123 0.073448 -0.653421
30 3.440184 -0.578705 1.137345 0.587081 -0.192757 0.216853
31 2.501091 0.000000 0.000000 -0.010757 -0.021484 -0.464276
32 2.170917 0.000000 0.000000 0.028566 0.062255 -0.430538
33 0.955230 -1.097456 0.270379 2.413279 -0.759981 -0.883250
34 1.963946 0.000000 0.000000 0.000000 -0.045527 -0.106288
35 1.868832 0.000000 0.000000 0.000000 0.019567 -0.562827
36 3.369210 1.594238 -1.500000 0.466953 1.084832 -1.296658
37 4.179417 0.000000 0.000000 1.770522 0.116454 -1.013736
38 10.735911 0.000000 0.000000 0.000000 0.000000 -0.849698
39 10.060604 -0.000010 0.000016 -0.810150 0.251531 -0.268317
40 2.888032 0.275104 1.268207 -0.489817 -0.676142 0.058655
41 2.059619 0.000000 0.000000 0.014073 0.022427 -0.560457
42 1.413883 0.000000 0.000000 0.034493 0.066093 -0.481466
43 3.061220 0.168117 0.385599 -0.518506 -0.174225 0.046249
44 2.508612 0.000000 0.000000 -0.003829 -0.006221 -0.551762
45 2.100857 0.000000 0.000000 0.032504 0.054996 -0.534173
46 3.430974 -0.120831 -0.402640 -0.516284 0.025867 -0.042281
47 2.573873 0.000000 0.000000 0.033895 0.079692 -0.402671
48 2.362709 0.000000 0.000000 -0.056123 -0.073448 -0.653421
49 3.440207 -0.577997 -1.137703 -0.554345 0.379772 0.069570
50 2.501091 0.000000 0.000000 0.008337 0.016641 -0.464460
51 2.170917 0.000000 0.000000 -0.028566 -0.062255 -0.430538
52 0.955254 -1.097296 -0.271062 -2.417156 0.764133 -0.888584
53 1.963946 0.000000 0.000000 0.000000 0.049433 -0.128248
54 1.868832 0.000000 0.000000 0.000000 -0.019567 -0.788824
55 3.547715 2.053023 2.506176 1.570796 0.000000 0.000000
56 11.868575 -0.144615 -0.682784 0.000000 0.365786 0.000000
57 0.032300 -4.377939 -4.331139 0.000000 0.000000 0.000000
58 -0.002340 -2.491005 4.197046 0.000000 0.000937 -0.001514
59 0.000000 0.000000 0.000000 0.000000 0.000000 0.000000
60 -0.421262 -2.516541 -1.807297 0.000000 0.000000 0.000000
61 0.480304 0.849103 9.288738 0.000000 0.000937 -0.001514
62 -0.056798 -0.000083 -2.394724 0.000000 0.000000 0.000000
63 0.002241 1.667430 -5.086772 0.000000 0.000000 0.000000
64 0.000000 0.000000 0.000000 0.000000 0.000000 0.000000
65 0.000000 0.000000 0.000000 0.000000 0.000000 0.000000
66 0.000000 0.000000 0.000000 0.000000 0.000000 0.000000
67 0.059042 -1.667439 7.481441 0.000000 0.000937 -0.001514
68 8.000000 0.000000 0.000000 0.000000 -0.365786 0.000000
69 -3.547715 2.053023 2.506176 1.570796 0.000000 0.000000
70 -5.336685 0.265847 -8.541546 0.085800 -0.344274 -0.014831
71 0.032300 -4.377939 -4.331139 0.000000 0.000000 0.000000
72 -0.063699 -2.571496 4.307481 -0.104772 0.001454 -0.001815
73 0.000000 0.000000 0.000000 0.000000 0.000000 0.000000
74 0.421262 -2.516541 -1.807297 0.000000 0.000000 0.000000
75 -0.480304 0.849103 9.288738 0.000000 0.000937 -0.001514
76 0.061285 0.000096 -2.394613 0.000000 0.000000 0.000000
77 0.002241 1.667430 -5.086772 0.000000 0.000000 0.000000
78 0.000000 0.000000 0.000000 0.000000 0.000000 0.000000
79 0.000000 0.000000 0.000000 -0.104771 0.000517 -0.000301
80 0.000000 0.000000 0.000000 0.000000 0.000000 0.000000
81 -0.057368 -1.416994 7.468351 -0.105853 -0.001122 0.061040
82 -8.000000 0.000000 0.000000 -0.085834 0.344266 -0.015026
83 0.000156 0.385903 39.987263 1.570796 0.000000 0.000000
84 0.382079 -7.927589 -4.764480 0.043305 -0.000377 0.026598
85 0.000000 3.980640 -0.064522 1.570796 0.083193 1.570796
86 0.000000 0.000000 0.000000 -0.025035 -0.023701 0.137222
87 0.000000 0.000000 0.000000 0.000000 0.000000 0.116415
88 3.256772 0.380860 0.000000 -0.025273 0.007473 0.152012
89 0.000000 0.000000 0.000000 0.000000 0.000000 -0.002481
90 3.543974 -0.008791 0.000000 -0.017207 0.058416 0.176464
91 0.000000 0.000000 0.000000 0.000000 0.000000 -0.095242
92 5.637959 -0.538598 0.000000 -0.016645 0.072766 0.075437
93 0.000000 0.000000 0.000000 0.000000 0.000000 0.003981
94 4.682045 0.018637 0.000000 -0.007129 -0.154352 0.173069
95 0.000000 0.000000 0.000000 3.141590 0.000000 0.612858
96 3.424439 2.408000 0.000000 0.062798 -0.010725 -0.424378
97 0.000000 0.000000 0.000000 3.141591 0.000000 0.094152
98 3.362837 1.607636 1.500000 0.057947 -1.099718 -1.791586
99 0.000000 0.000000 0.000000 -0.091310 0.012562 -0.003129
100 3.362837 1.607636 -1.500000 -0.136793 1.099718 -1.791586
101 0.000000 0.000000 0.000000 0.159503 0.005036 0.228254
102 4.476193 -0.173285 51.246494 1.570796 0.000000 0.000000
103 14.042627 -12.617314 -1.059495 0.000000 0.000000 0.000000
104 0.000000 9.000000 0.000000 0.000000 0.000000 0.000000
105 0.000000 0.000000 0.000000 0.000000 0.000000 0.000000
106 0.000000 0.000000 -10.000000 0.000000 0.000000 0.000000
107 -5.842497 0.477908 1.898344 0.000000 0.000000 0.000000
108 10.476091 4.353079 43.580135 -0.638126 0.514513 -0.406989
109 10.060622 -0.000017 -0.000028 1.552053 0.178087 0.070973
110 0.000000 0.000000 0.000000 -0.030200 -0.004688 0.363994
111 0.000000 0.000000 0.000000 -0.522403 0.000000 0.000000
112 0.000000 0.000000 0.000000 0.000000 0.000000 0.000000
113 -5.917249 0.789504 51.010830 1.570796 0.000000 0.000000
114 -14.160390 -12.485852 -1.637722 0.000000 0.000000 0.000000
115 0.000000 9.000000 0.000000 0.000000 0.000000 0.000000
116 0.000005 0.000022 -0.000003 0.000000 0.000000 0.000000
117 -0.000005 -0.000022 -9.999997 3.141592 -3.141592 3.141592
118 5.848145 0.743270 1.922454 0.000000 0.000000 0.000000
119 -11.985120 5.612720 43.582687 -2.553878 0.526744 -2.766586
120 10.060604 -0.000010 0.000016 1.589540 -0.178090 0.070970
121 0.000000 0.000000 0.000000 0.308551 -0.336207 -0.438291
122 0.000000 0.000000 0.000000 -2.619810 0.000000 0.000000
123 0.000000 0.000000 0.000000 0.000000 0.000000 0.000000
124 3.871192 5.149068 32.152493 1.570796 0.000000 0.000000
125 0.000000 0.000000 0.000000 0.000000 0.000000 0.000000
126 0.000000 0.000000 -10.000000 0.000000 0.000000 0.000000
127 0.420762 -4.137319 0.905741 0.000000 0.000000 0.000000
128 -3.106722 5.151699 31.966852 1.570796 0.000000 0.000000
129 0.000000 0.000000 0.000000 0.000000 0.000000 0.000000
130 0.000000 0.000000 -10.000000 0.000000 0.000000 0.000000
131 0.337305 2.655831 -0.365023 0.000000 0.000000 0.000000
end
